<svg width="355" height="337" viewBox="0 0 355 337" fill="none" xmlns="http://www.w3.org/2000/svg">
<g filter="url(#filter0_d_197_503)">
<g clip-path="url(#clip0_197_503)">
<rect x="30" y="30" width="295" height="277" rx="16" fill="#F8F8F9"/>
<path d="M34.2932 95.1531C24.3533 94.8504 14.4397 94.5406 4.49976 94.2378C-0.314648 94.0872 -0.367188 101.587 4.44722 101.738C14.3871 102.041 24.3007 102.35 34.2406 102.653C39.0814 102.797 39.1076 95.3037 34.2932 95.1531Z" fill="#13A4AB"/>
<path d="M37.5768 65.9158C27.0924 61.5781 16.5746 57.2212 6.09029 52.8835C1.64474 51.0521 -0.285294 58.2924 4.10049 60.1116C14.5848 64.4493 25.1026 68.8063 35.587 73.1439C40.0396 75.0017 41.9696 67.7613 37.5768 65.9158Z" fill="#13A4AB"/>
<path d="M57.5899 43.2926C48.3326 34.7843 39.4985 25.8519 31.0752 16.5552C27.8316 12.9893 22.5597 18.3002 25.8104 21.8925C34.2407 31.2156 43.0942 40.1145 52.325 48.6299C55.8477 51.8668 61.1196 46.5559 57.5899 43.2926Z" fill="#13A4AB"/>
<path d="M155.206 403.072L301.655 363.775C313.541 360.59 320.68 348.225 317.469 336.345L236.6 34.9611C233.415 23.0743 221.05 15.9354 209.171 19.1469L62.722 58.4441C50.8352 61.6292 43.6963 73.9941 46.9077 85.8738L127.796 387.224C130.961 399.144 143.319 406.257 155.206 403.072Z" fill="#13A4AB"/>
<path d="M226.405 43.9369C224.131 35.4501 215.308 30.3564 206.822 32.6304L71.4954 68.9475C63.0087 71.2215 57.915 80.044 60.189 88.5308L64.1226 103.211L230.353 58.6701L226.405 43.9369Z" fill="#CAF2F4"/>
<path d="M299.97 318.067L133.74 362.608L121.317 316.247L110.938 277.616L86.1393 185.277L75.7367 146.454L64.1213 103.21L230.351 58.6691L243.033 105.893L254.177 147.483L275.298 226.203L286.532 268.023L299.97 318.067Z" fill="#F8F8F9"/>
<path d="M242.491 245.779C262.458 211.195 250.609 166.972 216.024 147.005C181.44 127.038 137.218 138.887 117.25 173.471C97.2831 208.056 109.133 252.278 143.717 272.246C178.301 292.213 222.524 280.363 242.491 245.779Z" fill="#11939A"/>
<path opacity="0.69" d="M275.301 226.203C275.131 227.152 274.955 228.075 274.733 229.039C273.635 234.22 272.146 239.308 270.317 244.29C270.113 244.796 269.91 245.303 269.733 245.802C269.701 245.896 269.67 245.989 269.658 246.048C269.193 247.162 268.702 248.282 268.178 249.383C267.098 251.678 265.959 253.961 264.719 256.186C263.479 258.41 262.198 260.59 260.798 262.745C260.121 263.802 259.391 264.873 258.68 265.911C258.415 266.293 256.725 268.525 256.59 268.759C253.537 272.543 250.328 276.172 246.831 279.566C244.994 281.358 243.077 283.058 241.119 284.712C240.728 285.043 239.284 286.193 238.893 286.524C238.749 286.619 238.585 286.747 238.559 286.754C237.8 287.297 237.068 287.832 236.309 288.374C231.861 291.487 227.182 294.266 222.344 296.664C221.143 297.24 219.967 297.809 218.759 298.359C218.279 298.573 216.471 299.311 216.327 299.406C213.894 300.341 211.44 301.196 208.938 301.98C203.539 303.652 198.077 304.777 192.506 305.704C192.48 305.711 192.236 305.749 191.965 305.793C191.529 305.853 190.789 305.938 190.617 305.928C189.296 306.056 187.974 306.184 186.665 306.253C183.861 306.439 181.049 306.486 178.216 306.454C175.806 306.422 173.375 306.311 170.976 306.106C169.736 306.015 168.509 305.863 167.282 305.712C167.069 305.656 164.694 305.332 164.276 305.246C159.238 304.364 154.246 303.131 149.381 301.525C148.169 301.115 146.958 300.706 145.765 300.262C145.326 300.098 143.847 299.534 143.474 299.407C141.181 298.44 138.919 297.379 136.703 296.278C131.997 293.895 127.484 291.178 123.17 288.153C122.581 287.746 121.985 287.312 121.388 286.879C121.355 286.86 121.214 286.756 121.073 286.652C120.744 286.373 119.154 285.076 118.799 284.804C116.691 283.053 114.648 281.227 112.696 279.321C112.117 278.741 111.546 278.188 110.967 277.609L121.346 316.241C155.82 334.941 198.229 336.233 234.38 318.496C256.681 307.577 274.777 289.508 286.587 268.009L275.301 226.203ZM89.2198 175.469C89.3968 174.97 90.089 173.231 90.1134 173.111C90.5849 172.025 91.0564 170.938 91.5614 169.87C93.7844 165.094 96.3274 160.458 99.2188 156.067C99.9223 155.003 100.626 153.939 101.37 152.92C101.616 152.572 102.697 151.124 103.046 150.635C103.195 150.454 103.318 150.279 103.363 150.239C103.837 149.688 104.278 149.118 104.745 148.541C105.685 147.413 106.633 146.312 107.614 145.23C111.162 141.285 115.005 137.6 119.091 134.188C119.437 133.898 120.959 132.727 121.116 132.573C121.089 132.58 121.089 132.58 121.063 132.587C121.867 132.004 122.638 131.402 123.45 130.845C125.733 129.245 128.07 127.743 130.482 126.306C132.749 124.964 135.071 123.72 137.415 122.555C138.439 122.055 139.463 121.555 140.494 121.081C140.947 120.874 143.359 119.861 143.386 119.854C148.384 117.95 153.513 116.321 158.754 115.114C161.392 114.521 164.051 114.006 166.711 113.604C166.903 113.581 167.688 113.455 168.124 113.395C168.342 113.365 168.56 113.334 168.593 113.354C170.107 113.202 171.627 113.078 173.128 112.986C178.543 112.637 183.958 112.711 189.367 113.183C190.408 113.271 191.429 113.393 192.477 113.508C192.742 113.55 194.507 113.811 194.978 113.883C197.673 114.347 200.397 114.917 203.062 115.587C205.541 116.194 207.996 116.92 210.438 117.707C211.649 118.116 212.861 118.526 214.053 118.969C214.56 119.173 215.059 119.35 215.592 119.546C215.812 119.628 215.965 119.672 216.091 119.723C216.125 119.742 216.151 119.735 216.184 119.754C221.031 121.817 225.737 124.2 230.251 126.918C232.437 128.224 234.566 129.632 236.648 131.079C237.345 131.57 238.015 132.069 238.686 132.567C238.8 132.678 241.061 134.473 241.423 134.771C245.498 138.171 249.287 141.874 252.828 145.812C253.306 146.333 253.766 146.888 254.225 147.443L243.062 105.886C227.279 96.2166 209.211 90.0407 190.033 88.2586C144.61 84.0453 99.1539 107.751 75.7583 146.421L86.1943 185.263C86.4183 184.412 86.6493 183.588 86.8996 182.73C87.5541 180.323 88.3404 177.88 89.2198 175.469Z" fill="#D4F1F2"/>
<path d="M216.897 243.236L166.24 256.81C165.713 256.951 165.145 256.623 165.004 256.096L151.437 205.465C151.296 204.938 151.624 204.37 152.151 204.229L202.808 190.655C203.336 190.514 203.904 190.842 204.045 191.369L217.611 242C217.76 242.553 217.425 243.095 216.897 243.236Z" fill="#F8F8F9"/>
<path d="M164.006 205.657C162.995 198.301 159.194 191.495 158.645 184.071C158.01 175.795 163.94 169.884 171.688 168.119C175.465 167.248 179.742 167.288 182.702 170.111C185.54 172.797 186.788 176.926 188.033 180.519C191.036 189.092 193.738 197.804 196.248 206.538C197.268 210.135 202.915 208.65 201.888 205.027C198.758 194.085 195.862 182.432 191.009 172.122C187 163.592 179.249 160.386 170.183 162.505C162.021 164.409 154.643 170.398 153.085 178.922C151.343 188.655 157.089 197.765 158.399 207.188C158.904 210.866 164.538 209.328 164.006 205.657Z" fill="#F8F8F9"/>
<path d="M190.243 214.701C191.443 219.181 188.773 223.767 184.319 224.96C179.839 226.161 175.253 223.491 174.06 219.037C172.859 214.556 175.529 209.971 179.983 208.777C184.464 207.577 189.049 210.247 190.243 214.701Z" fill="#11939A"/>
<path d="M182.871 219.558L176.868 241.957L199.271 235.955L182.871 219.558Z" fill="#11939A"/>
<path d="M215.83 48.436L192.61 54.6578C190.133 55.3217 187.586 53.829 186.929 51.3778C186.265 48.9003 187.758 46.3534 190.209 45.6966L213.429 39.4749C215.907 38.811 218.453 40.3037 219.11 42.7549C219.767 45.206 218.281 47.7793 215.83 48.436Z" fill="#F8F8F9"/>
<path d="M69.7214 86.2578C73.3322 85.2903 71.8473 79.6429 68.2101 80.6175C64.5992 81.585 66.1106 87.2253 69.7214 86.2578Z" fill="#F8F8F9"/>
<path d="M82.6567 81.9167C86.2675 80.9491 84.7826 75.3018 81.1454 76.2764C77.5082 77.251 79.0195 82.8912 82.6567 81.9167Z" fill="#F8F8F9"/>
<path d="M97.1954 77.146C100.806 76.1784 99.3213 70.5311 95.6841 71.5057C92.0733 72.4732 93.5846 78.1135 97.1954 77.146Z" fill="#F8F8F9"/>
</g>
</g>
<defs>
<filter id="filter0_d_197_503" x="0" y="0" width="355" height="337" filterUnits="userSpaceOnUse" color-interpolation-filters="sRGB">
<feFlood flood-opacity="0" result="BackgroundImageFix"/>
<feColorMatrix in="SourceAlpha" type="matrix" values="0 0 0 0 0 0 0 0 0 0 0 0 0 0 0 0 0 0 127 0" result="hardAlpha"/>
<feOffset/>
<feGaussianBlur stdDeviation="15"/>
<feComposite in2="hardAlpha" operator="out"/>
<feColorMatrix type="matrix" values="0 0 0 0 0.0745098 0 0 0 0 0.643137 0 0 0 0 0.670588 0 0 0 0.4 0"/>
<feBlend mode="normal" in2="BackgroundImageFix" result="effect1_dropShadow_197_503"/>
<feBlend mode="normal" in="SourceGraphic" in2="effect1_dropShadow_197_503" result="shape"/>
</filter>
<clipPath id="clip0_197_503">
<rect x="30" y="30" width="295" height="277" rx="16" fill="white"/>
</clipPath>
</defs>
</svg>
