<svg width="17" height="19" viewBox="0 0 17 19" fill="none" xmlns="http://www.w3.org/2000/svg">
<path d="M4.16667 0C2.025 0 0 2.83333 0 5.83333C0 8.13333 0.658333 10.3917 0.833333 10.9667V12.5C0.833333 13.875 1.95833 15 3.33333 15C4.70833 15 5.83333 13.875 5.83333 12.5V10.8333C5.83333 9.74167 6.20833 8.80833 6.60833 7.80833C7.05 6.70833 7.5 5.575 7.5 4.16667C7.5 2.1 6.35 0 4.16667 0ZM4.16667 12.5C4.16667 12.9583 3.79167 13.3333 3.33333 13.3333C2.875 13.3333 2.5 12.9583 2.5 12.5V10.8333H4.16667V12.5ZM5.05833 7.19167C4.80833 7.81667 4.55833 8.46667 4.38333 9.16667H2.075C1.86667 8.26667 1.65833 7.04167 1.65833 5.83333C1.65833 3.68333 3.06667 1.66667 4.15833 1.66667C5.475 1.66667 5.825 3.3 5.825 4.16667C5.825 5.25833 5.45 6.19167 5.05 7.19167H5.05833ZM12.5 3.33333C10.3167 3.33333 9.16667 5.43333 9.16667 7.5C9.16667 8.90833 9.61666 10.0417 10.0583 11.1417C10.4583 12.1333 10.8333 13.075 10.8333 14.1667V15.8333C10.8333 17.2083 11.9583 18.3333 13.3333 18.3333C14.7083 18.3333 15.8333 17.2083 15.8333 15.8333V14.3C16.0083 13.7333 16.6667 11.4667 16.6667 9.16667C16.6667 6.16667 14.6417 3.33333 12.5 3.33333ZM14.1667 15.8333C14.1667 16.2917 13.7917 16.6667 13.3333 16.6667C12.875 16.6667 12.5 16.2917 12.5 15.8333V14.1667H14.1667V15.8333ZM14.5833 12.5H12.275C12.1 11.8 11.8583 11.15 11.6 10.525C11.2 9.53333 10.825 8.59167 10.825 7.5C10.825 6.63333 11.175 5 12.4917 5C13.5833 5 14.9917 7.01667 14.9917 9.16667C14.9917 10.375 14.7833 11.6 14.575 12.5H14.5833Z" fill="#D4F1F2"/>
</svg>
