<svg width="30" height="30" viewBox="0 0 30 30" fill="none" xmlns="http://www.w3.org/2000/svg">
<path d="M15 1.875C7.78125 1.875 1.875 7.78125 1.875 15C1.875 22.2187 7.78125 28.125 15 28.125C22.2187 28.125 28.125 22.2187 28.125 15C28.125 7.78125 22.2187 1.875 15 1.875ZM13.9687 7.5H16.0313V17.8125H13.9687V7.5ZM15 23.4375C14.25 23.4375 13.5938 22.7813 13.5938 22.0312C13.5938 21.2812 14.25 20.625 15 20.625C15.75 20.625 16.4062 21.2812 16.4062 22.0312C16.4062 22.7813 15.75 23.4375 15 23.4375Z" fill="#0F474A"/>
</svg>
