<svg width="30" height="30" viewBox="0 0 30 30" fill="none" xmlns="http://www.w3.org/2000/svg">
<path d="M5.58753 26.2496H24.4125C26.3375 26.2496 27.5375 24.1621 26.575 22.4996L17.1625 6.23711C16.2 4.57461 13.8 4.57461 12.8375 6.23711L3.42503 22.4996C2.46253 24.1621 3.66253 26.2496 5.58753 26.2496ZM15 17.4996C14.3125 17.4996 13.75 16.9371 13.75 16.2496V13.7496C13.75 13.0621 14.3125 12.4996 15 12.4996C15.6875 12.4996 16.25 13.0621 16.25 13.7496V16.2496C16.25 16.9371 15.6875 17.4996 15 17.4996ZM16.25 22.4996H13.75V19.9996H16.25V22.4996Z" fill="#0F474A"/>
</svg>
