<svg width="57" height="99" viewBox="0 0 57 99" fill="none" xmlns="http://www.w3.org/2000/svg">
<path d="M11.174 8.72771C11.1855 9.33758 12.7871 9.38427 13.3306 9.36384C15.4642 9.29089 17.3706 8.65768 19.3288 7.84646C19.4697 8.65476 19.7428 9.43095 20.1195 10.1575C20.3265 10.5544 21.2898 12.2323 21.6636 12.1943C21.7326 12.1885 21.8016 12.171 21.8591 12.136C22.3135 10.3647 24.8352 9.94453 25.0998 11.9755C25.3384 13.8168 23.5873 14.768 21.9828 14.5112L21.7183 14.8964L22.7534 22.5533C22.7879 22.7926 22.9604 22.921 23.1732 22.9969C22.325 25.0745 19.9786 26.1834 17.8364 25.9149C15.4296 25.6143 14.9379 24.2662 15.5475 22.0923C15.8121 22.1098 16.0853 22.1127 16.344 22.0456C16.8041 21.926 17.799 21.6487 17.7128 21.1118C17.8709 20.9105 17.8191 20.7967 17.5632 20.7879C17.2326 21.0214 15.4987 21.675 15.2542 21.3686C15.191 21.2898 15.2169 20.1635 15.2542 19.9417C14.9983 19.7841 14.6648 19.6762 14.7855 20.0176L14.797 22.3666C14.797 22.8772 14.5296 23.1311 14.0724 23.2653C11.982 23.8869 9.95192 24.5376 7.97074 25.448C6.18509 26.268 4.67835 27.6278 3.82434 29.4136C3.12848 30.8697 2.59365 32.3433 2.17958 33.9132L0.793617 39.1657L-7.62939e-06 42.7315C0.385303 42.9183 0.646969 42.9387 1.03803 43.0233L0.885632 43.4814L0.28466 47.5667C-0.264549 51.2988 1.28819 56.5455 1.9783 60.4206L2.46138 63.1256L2.58215 65.2295L2.69716 66.8403L2.82081 68.3197L2.94157 69.9246L3.07385 71.5529L5.21893 95.6762L5.55536 98.8394L15.8293 98.819L16.1054 96.0031L16.2204 94.6403L16.3412 92.6677L16.4648 90.6893L16.5913 88.5854L16.6805 86.5632L16.7955 82.7465L17.8134 87.8618L19.9412 98.5359C19.9901 98.7839 20.1368 98.7839 20.2547 98.8511C20.7377 98.9386 21.2496 98.9386 21.7298 98.8248L32.5386 98.8306C32.6938 98.4046 32.4753 97.9902 32.4523 97.6138L32.343 95.6266L32.2309 94.013L32.1101 92.2826L31.9894 90.5522L31.8686 88.8218L31.7478 87.0914L31.627 85.361L31.5063 83.6306L31.3826 82.0286L31.2647 80.1698L31.1411 78.5678L31.0117 76.5982L30.8967 74.9845L30.7759 73.2541L30.6465 71.2873L30.5315 69.6737L30.4107 68.0688L30.2813 66.5864C30.2267 65.9474 30.2238 65.3725 30.1519 64.7276L30.0312 63.6217C29.9765 63.1373 30.2152 62.8951 30.5027 62.6412L33.3724 60.1055L34.767 58.8128L36.4779 57.2137C39.2556 54.6196 42.3525 51.0129 41.8205 47.0589L41.3547 43.6011C41.7227 43.6536 41.947 43.5836 42.0735 43.4348C42.1771 43.3151 42.2202 43.105 42.1684 42.8832C41.2684 39.0781 40.1729 35.4248 38.738 31.7947C38.1083 30.2015 37.4527 28.6987 36.4089 27.3506L35.1955 26.1133C33.545 24.7419 31.5753 24.0503 29.5078 23.6009L23.4953 22.2907C23.2451 21.6371 23.2192 20.9951 23.1272 20.3094L22.4429 15.197C24.3378 15.2728 25.7956 14.0881 25.764 12.1972C25.7468 11.1147 24.8927 9.81322 23.7943 9.97954C23.3601 9.5681 22.5521 10.143 22.1266 10.534C21.931 10.7149 21.77 10.9279 21.6291 11.1526C20.87 10.4727 20.4329 9.35217 20.131 8.34545C20.0936 7.29787 19.7543 6.88643 19.1131 7.11404C16.6603 8.21705 13.9402 9.08079 11.2545 8.40964C11.174 8.40381 11.1395 8.59932 11.1682 8.72187L11.174 8.72771ZM30.2468 47.803L29.0506 54.249C28.4842 55.352 27.7308 56.2682 26.9918 57.1874C26.7647 57.7944 25.5829 57.5172 24.0445 58.0628C22.0921 58.7573 20.0591 58.9266 17.9572 58.9879C16.9968 59.017 16.114 59.1367 15.1421 58.9762L12.12 58.9091L11.0043 58.8011L8.94263 58.5531L8.33017 58.448C8.18352 58.6406 7.90173 58.5881 7.64869 58.5239L5.29082 57.9228L5.31382 55.3666C5.3167 54.9114 5.37996 54.4649 5.40871 53.998L5.50935 52.396C5.56111 51.5877 5.60137 50.8495 5.633 50.0499L5.71064 48.1269L5.83715 44.6778L5.95505 40.8377L6.01831 38.372L6.09882 38.3049C6.16496 38.5937 6.14483 38.8855 6.14195 39.1744C6.22534 39.1598 6.26847 39.0694 6.26559 38.9352L6.25984 38.0656C6.17933 38.051 6.13333 37.9576 6.13333 37.8263L6.13908 36.8896C6.11895 36.8429 6.07582 36.8254 6.05281 36.8254L5.9953 37.9576C5.8429 37.8555 5.88028 37.6921 5.86878 37.5666L5.75952 38.1881C5.85728 38.1998 5.90617 38.2932 5.90329 38.4274L5.86591 40.292C5.84003 40.292 5.79977 40.2745 5.77677 40.2249V39.297C5.69338 39.3116 5.64738 39.402 5.64738 39.5333L5.65312 40.5313C5.69913 40.5226 5.77677 40.5751 5.7739 40.6626L5.75089 43.7499C5.71638 43.7499 5.67325 43.7324 5.65312 43.6828V42.5097C5.45472 42.8132 5.53523 43.175 5.53811 43.7382C4.87675 43.356 4.14927 43.2363 3.39302 43.0671L0.606712 42.4426L1.78564 37.2369C2.14795 35.6319 2.54189 34.1 3.12273 32.6293L4.40231 29.3815C5.26206 27.1959 8.03975 25.8099 10.2596 25.0687L14.659 23.5951C14.6677 24.8936 15.4009 25.9791 16.5942 26.3409C19.553 27.2426 22.9863 25.8303 23.918 22.8977L29.7839 24.2137L32.6277 25.1475C34.8274 26.1104 36.3859 27.7795 37.3808 29.9826C38.7121 32.9298 39.7588 35.915 40.5956 39.0548L41.6451 42.9825C38.0939 42.8541 34.7095 43.5281 31.6644 44.8091C30.9657 42.3755 30.3676 40.117 30.1433 37.7008C30.0858 37.091 30.1951 36.4811 29.8586 35.8887C29.5711 37.3886 29.7436 38.7688 29.9593 40.1987C30.2123 41.538 30.4596 42.8161 30.8737 44.1234L30.2497 47.806L30.2468 47.803ZM4.75886 43.9863L5.43747 44.1905C5.69338 44.7129 5.46622 45.2965 5.44034 45.845L5.29944 49.0578L4.82499 57.809C4.80199 58.2233 5.55536 58.3955 5.93492 58.4655C5.14417 59.9421 4.12914 61.2085 2.89845 62.4078L1.98405 58.0774C1.43484 55.4745 0.943138 52.9446 0.667095 50.2921C0.552078 48.7631 0.753357 47.3303 0.994896 45.8334L1.41471 43.2305L4.75311 43.9804L4.75886 43.9863ZM19.8291 60.5169C21.6435 59.3672 23.5873 58.6173 25.6001 58.0482C25.9883 57.9374 26.3448 57.9753 26.7388 58.0803C29.2749 55.387 31.0203 51.7628 33.4012 49.0403C34.353 47.9519 36.2048 47.59 36.3284 47.3945C36.5699 47.0152 34.4651 47.5258 33.3466 48.4859C33.1309 47.2982 32.7571 46.3265 32.366 45.1739C34.514 44.208 36.7453 43.8083 39.0457 43.5369H40.9119L41.3346 46.8284C41.7688 50.19 39.9227 53.1139 37.6051 55.3987L34.5715 58.3867C32.714 60.2163 30.8277 61.9 28.7372 63.4524C27.8372 64.1207 26.8452 64.5234 25.7381 64.1177C24.5189 63.6713 23.34 62.9972 22.4112 62.0839C23.0208 61.8504 23.5413 61.6403 23.7052 61.0334C22.3595 61.6403 20.5594 62.3698 19.8118 61.5353C19.6393 61.3427 19.4438 60.7591 19.8262 60.5169H19.8291ZM29.7781 53.181L30.9571 46.9276C31.0577 46.3878 31.1756 45.9238 31.0922 45.3402L31.9405 45.6058C32.3344 46.6271 32.6996 47.6163 32.9555 48.6522C32.7686 49.1191 32.4494 49.4138 32.1878 49.7815L29.7781 53.181ZM29.8586 68.0571L29.873 68.2293L31.6903 93.7474L31.8168 95.6354L31.9433 97.3629V98.4688L21.0195 98.4834C20.8815 98.4834 20.5594 98.7197 20.4416 98.4921L19.0757 91.6756L18.7163 89.811L17.4108 83.1958L16.2463 77.5815L14.6677 70.3011C14.5124 69.5861 14.2996 68.8479 13.8482 68.2759C13.1494 67.3918 11.9964 66.9132 10.8634 66.9278C11.1136 67.3217 11.565 67.3655 11.9187 67.5114C13.1149 67.9987 13.8309 68.9588 14.0811 70.1668L16.0996 79.4228C16.2204 80.2136 16.3843 81.054 16.3412 81.9177L16.2434 83.8962L16.2492 84.8941C16.2492 85.0254 16.2003 85.1188 16.1198 85.1305L15.999 88.7197L15.4066 97.5263L15.375 98.4746H6.04419L6.00968 97.9815L5.65312 94.7687L5.50648 93.2805L5.37421 91.3079L5.24194 89.7089L5.15855 88.9531L4.4138 81.1765L4.27866 79.5687L4.16077 77.9609L4.04 76.4785L3.91923 74.9932L3.78696 73.6539L3.67769 72.402L3.55117 71.0452L3.4304 69.4344L3.30676 68.0834L3.20036 66.3384C3.16298 65.711 2.99046 65.1537 3.11698 64.4708C3.00771 63.9398 2.76905 63.0643 3.09685 62.6646C4.37355 61.4799 5.49498 60.1901 6.30298 58.5618C8.77011 59.0433 11.1625 59.3964 13.6929 59.4401C16.275 59.4868 18.7623 59.5423 21.2467 59.2242L19.6939 60.0763C19.3805 60.2484 19.2051 60.5899 19.1649 60.8671C19.0412 61.725 19.9786 62.507 20.8642 62.3874L22.0403 62.2269C24.3464 64.5058 27.0062 65.8423 29.4935 63.4028L29.8586 68.06V68.0571Z" fill="#09182C"/>
<path d="M8.9024 1.83252C8.80751 2.08638 8.63498 2.39569 8.38482 2.76337C7.89025 4.70094 8.03689 7.23962 9.93181 8.34264C9.77366 9.51277 9.83117 10.6566 10.0986 11.7742C9.82255 12.4016 10.5932 12.1186 10.8951 11.8093C10.7858 10.8113 10.875 9.88336 11.1625 9.02546C11.5679 9.08966 11.4817 8.94667 11.1769 8.72782C11.2344 8.69572 11.289 8.62569 11.3695 8.64903C13.7964 9.38729 16.7926 8.43894 19.1304 7.38844C19.3288 7.3009 19.5071 7.24546 19.6681 7.35343C19.8291 7.46139 19.7543 7.71235 19.7917 7.90202C20.0649 9.36103 20.7636 10.6508 21.6493 11.6867C22.0489 10.7179 22.8972 10.1314 23.803 9.99424C23.7196 9.97674 23.6103 9.91546 23.5701 9.84834C23.5442 9.80457 23.6333 9.71703 23.7081 9.69369C24.4499 8.93792 24.6484 7.96621 24.6771 6.93323C24.7317 5.00441 23.3285 3.50746 21.3243 3.60668C21.0109 1.99009 19.855 0.878319 18.3741 0.326811C16.6604 -0.309319 14.9063 -0.0350243 13.5635 1.31019C11.9533 0.671139 10.0152 0.697401 8.90528 1.83835L8.9024 1.83252Z" fill="#223248"/>
<path d="M9.75353 10.5194L9.78516 9.27637C9.558 9.64988 9.66439 10.1314 9.75353 10.5194Z" fill="#727A83"/>
<path d="M20.2518 98.8627C20.548 99.0378 21.448 99.0465 21.7269 98.8364L20.2518 98.8627Z" fill="#A7C5CD"/>
<path d="M3.09687 62.6648C3.02785 63.5081 3.05086 64.3806 3.16588 65.2764C3.7956 73.4323 4.53172 81.5765 5.37135 89.7091C5.47774 92.3761 5.71928 95.2912 6.14197 97.9642C6.05283 98.0575 6.0442 98.2064 6.11609 98.4135H15.306L15.3434 97.4331L15.4124 97.5294L16.0048 88.7228L16.1255 85.1336C16.1658 84.7221 16.2089 84.3107 16.2492 83.8993L16.3469 81.9208C16.3901 81.0542 16.2262 80.2167 16.1054 79.4259C15.746 79.353 15.677 79.6506 15.9012 80.3188L15.6798 87.1558C15.1536 81.0367 14.1817 74.9467 13.0862 68.921C13.2587 69.0757 13.3823 69.2653 13.4657 69.49C13.598 70.0124 13.9804 71.1883 14.0897 70.1699C13.8395 68.9619 13.1236 68.0018 11.9274 67.5145C11.5708 67.3686 11.1222 67.3278 10.8721 66.9309C12.005 66.9163 13.1552 67.3949 13.8568 68.279C14.3082 68.851 14.521 69.5892 14.6763 70.3042L16.2549 77.5846L17.4195 83.1989C17.4684 83.1931 17.5057 83.1902 17.5057 83.1931C18.0952 85.9915 18.6847 88.8657 19.0844 91.6758L20.4502 98.4923C20.6544 98.4748 20.8671 98.4486 21.0885 98.4165H31.8657C31.8485 97.4827 31.837 96.5577 31.8255 95.6385L31.6989 93.7505L29.8817 68.2324C29.735 68.1915 29.7321 68.1331 29.8673 68.0602L29.5021 63.403C27.0148 65.8425 24.3551 64.506 22.0489 62.2271L20.8729 62.3875C19.9872 62.5101 19.0499 61.7252 19.1735 60.8673C19.2138 60.59 19.3863 60.2486 19.7026 60.0765L21.2553 59.2244C18.7709 59.5395 16.2837 59.487 13.7015 59.4403C11.1711 59.3936 8.77875 59.0406 6.31162 58.562C5.50649 60.1932 4.38219 61.483 3.1055 62.6648H3.09687Z" fill="#52A5B4"/>
<path d="M16.1054 79.4229L14.0868 70.1669C14.0868 70.2632 14.0868 70.3887 13.9574 70.4325C13.8568 69.5688 13.5261 68.8276 12.8676 68.3228C12.7411 68.8392 12.9309 69.2682 13.0057 69.7351L13.299 71.5734L14.406 78.0865L15.3376 85.9156L15.6913 90.3364L15.9616 86.8056L16.0565 83.0851L16.1456 80.3071C16.1543 80.0182 15.8811 79.6768 16.1054 79.42V79.4229Z" fill="#468D9F"/>
<path d="M5.24482 89.7088C5.2822 89.8168 5.32534 89.8139 5.36847 89.7059L4.43682 79.2039L3.68058 70.7942L3.54831 69.1893L3.42466 67.7069L3.30965 66.2187C3.25501 65.5038 3.20901 64.8472 3.19175 64.1148C3.18025 63.6012 2.98185 63.1139 3.09399 62.6616C2.76619 63.0643 3.00485 63.9368 3.11412 64.4679C2.9876 65.1507 3.16012 65.708 3.19751 66.3354L3.3039 68.0804L3.42754 69.4315L3.54831 71.0422L3.67483 72.3991L3.78409 73.6509L3.91637 74.9903L4.03714 76.4756L4.1579 77.9579L4.2758 79.5658L4.41094 81.1736L5.15568 88.9502L5.23907 89.7059L5.24482 89.7088Z" fill="#6ACFE0"/>
<path d="M20.4416 98.4926C20.5623 98.7231 20.8815 98.4867 21.0195 98.4838L31.9405 98.4692V97.3633L31.8168 95.6358C31.7823 95.6271 31.7162 95.6737 31.7191 95.7613L31.7335 97.1036C31.7392 97.5267 31.9117 97.9002 31.8111 98.3496L20.755 98.3437C20.5968 98.3437 20.5278 98.405 20.4416 98.4896V98.4926Z" fill="#70DEEB"/>
<path d="M29.873 68.2294L29.8587 68.0573C29.1571 68.0573 28.3376 68.0836 27.6302 67.7801C26.7992 67.4212 26.1953 66.2598 25.9912 66.4086C25.5541 66.7267 27.4002 68.8568 29.8759 68.2324L29.873 68.2294Z" fill="#224A61"/>
<path d="M17.4137 83.1961L18.7192 89.8113L19.0786 91.6759C19.2569 91.4921 19.1649 91.1828 19.1045 90.8764L17.5316 82.9072C17.4281 83.0152 17.4511 83.1261 17.4137 83.1961Z" fill="#69CFDE"/>
<path d="M6.14198 97.9614C6.09023 97.8593 6.04709 97.8681 6.01259 97.9819L6.04709 98.475H15.3779L15.4096 97.5266C15.4153 97.3545 15.4239 97.1561 15.3492 96.9868C15.3348 96.9897 15.2974 97.0102 15.2715 97.051L15.26 98.3495H6.17074C6.09597 98.2241 6.14773 98.0461 6.13911 97.9585L6.14198 97.9614Z" fill="#71E1EF"/>
<path d="M6.01257 97.9816L6.14197 97.9612L5.77678 94.4041L5.36847 89.7061L5.24483 89.709L5.3771 91.3081L5.50937 93.2806L5.65602 94.7688L6.01257 97.9816Z" fill="#6CD4E3"/>
<path d="M16.1227 85.1308C16.2032 85.1191 16.2549 85.0258 16.2521 84.8945L16.2463 83.8965C16.1658 83.9082 16.1169 84.0015 16.1169 84.1328V85.1308H16.1227Z" fill="#468D9F"/>
<path d="M28.9241 93.342C29.3555 92.1748 29.1542 90.9434 29.0938 89.712L28.7171 82.0025L27.5727 68.0894C27.196 68.4191 27.334 68.8159 27.3628 69.2128L28.6682 87.2112L28.9241 93.342Z" fill="#224A61"/>
<path d="M10.2596 14.8467C10.4781 15.1064 10.7829 15.2465 11.128 15.1823C10.8203 14.1201 10.6708 13.1134 10.6104 11.9199C9.62126 12.5561 9.51486 13.9625 10.2596 14.8496V14.8467Z" fill="#EFCDBA"/>
<path d="M19.8291 60.5167C19.4467 60.7589 19.6422 61.3425 19.8147 61.535C20.5623 62.3667 22.3595 61.6401 23.7081 61.0331C23.5442 61.6401 23.0209 61.8502 22.4141 62.0836C23.3429 62.9999 24.5218 63.674 25.741 64.1175C26.8481 64.5231 27.8401 64.1175 28.7401 63.4522C30.8306 61.8998 32.7169 60.2161 34.5744 58.3865L37.608 55.3984C39.9256 53.1136 41.7717 50.1897 41.3375 46.8282L40.9148 43.5396H39.0486C36.7482 43.808 34.5169 44.2078 32.3689 45.1736C32.7571 46.3263 33.1309 47.298 33.3495 48.4856C34.4709 47.5256 36.5757 47.012 36.3313 47.3943C36.2077 47.5898 34.3559 47.9516 33.4041 49.04C31.0232 51.7655 29.2778 55.3868 26.7417 58.0801C26.3477 57.975 25.9883 57.9371 25.603 58.048C23.5902 58.617 21.6464 59.3669 19.832 60.5167H19.8291Z" fill="#F4C7B1"/>
<path d="M5.43748 44.1905L5.00042 44.1993C5.03205 44.8938 5.02917 45.6028 4.98891 46.3265C4.05152 45.8801 3.08249 45.4657 2.07896 45.0893L1.58438 45.0951L1.77992 43.7295C2.70293 43.8812 3.6202 44.0942 4.52884 44.3598C4.85089 44.3364 4.96879 44.2518 4.75313 43.9833L1.41473 43.2334L0.994915 45.8363C0.753377 47.3332 0.552096 48.7631 0.667114 50.295C0.943157 52.9475 1.43486 55.4775 1.98407 58.0803L2.89846 62.4107C4.12916 61.2085 5.14419 59.945 5.93494 58.4684C5.55825 58.3984 4.80489 58.2262 4.82501 57.8119L5.29946 49.0607L5.44036 45.848C5.46336 45.2994 5.69052 44.7158 5.43748 44.1934V44.1905Z" fill="#F4C7B1"/>
<path d="M5.43749 44.1907L4.75889 43.9864C4.8049 44.0681 4.68413 44.1527 4.56048 44.1206L2.70581 43.6421C2.30613 43.5399 1.94382 43.4349 1.53838 43.5108L1.29972 45.4513C1.79717 45.2091 2.32051 45.3462 2.7662 45.5651L5.22758 46.779L5.28509 44.4941C5.28509 44.4358 5.16432 44.3278 5.18158 44.2899C5.21033 44.2257 5.38861 44.2053 5.44037 44.1907H5.43749Z" fill="#DCA692"/>
<path d="M32.8837 46.0113C33.4185 45.5707 34.0942 45.3547 34.793 45.133C36.6304 44.5523 38.9451 44.2225 40.8199 44.3889C40.8918 44.1408 40.7106 43.6652 40.5036 43.6739L38.6461 43.7586C36.6016 43.8519 34.6521 44.4589 32.7485 45.1592C32.6335 45.2876 32.6738 45.6786 32.8837 46.0113Z" fill="#DEA693"/>
<path d="M9.78807 9.27643C9.67305 9.68203 9.71331 10.1081 9.75644 10.5195C9.84558 10.9076 9.82545 11.3278 10.0612 11.7743C9.44589 12.4104 9.20148 13.2654 9.38838 14.1204C9.59829 15.0862 10.3287 15.7399 11.2891 15.734C11.9389 17.4819 12.9137 19.2444 14.5326 19.7726C14.685 19.8426 14.8575 19.866 15.0501 19.8397C15.2198 20.3124 16.3613 20.1169 16.8674 20.0264C17.9285 19.8368 18.7738 19.3611 19.6336 18.798C20.2259 18.9322 20.341 17.7183 19.6652 17.8438C18.1355 19.2911 15.585 20.1753 13.8626 18.582C11.4012 16.306 10.9986 12.4746 11.3494 9.2881L11.1625 9.02548C11.1482 8.88541 11.0216 8.89416 10.9958 8.99338C10.7456 9.91839 10.7427 10.788 10.7772 11.7247C10.4954 11.7626 10.3488 11.8414 10.1763 12.0048L9.9836 10.6858C9.86858 9.90088 10.0037 9.06633 10.0325 8.29889C9.62704 7.99249 8.9887 7.61899 8.86505 7.02662C8.36185 6.38758 8.24108 5.63472 8.35897 4.82935C8.04267 3.8343 8.28134 2.77214 9.0002 2.04263C9.08071 1.96092 9.05196 1.85879 8.90531 1.83545C8.40498 2.35194 8.07718 2.98807 8.08293 3.84889L8.09443 5.57345C8.10306 6.76984 8.91106 7.7999 9.88008 8.42436C9.7967 8.73367 9.78807 8.99921 9.78807 9.27351V9.27643Z" fill="#09122B"/>
<path d="M14.5297 19.7726C14.5728 19.8834 14.6591 19.9856 14.7827 20.0177C14.8172 19.9593 14.8489 19.9301 14.8891 19.9126C14.9725 19.8718 15.0501 19.9389 15.0386 19.9768L14.961 20.2278L15.0243 21.6167C15.9588 21.7597 16.7467 21.5409 17.5288 21.0419C17.6064 20.9923 17.7128 21.0098 17.7186 21.1119C18.2275 21.074 18.6675 20.7559 19.0441 20.1548C19.51 19.7084 19.7055 19.2561 19.6307 18.795C19.5818 18.6987 19.5416 18.6112 19.4812 18.5732C18.3052 19.4749 16.8991 19.9651 15.4355 19.8572C15.1335 19.8338 14.8029 19.5274 14.5326 19.7696L14.5297 19.7726Z" fill="#1D2C43"/>
<path d="M11.174 8.72777C11.3178 8.83865 11.1798 8.95538 11.1596 9.02541C11.0101 9.5419 11.0072 10.1634 10.9986 10.7558C10.9727 12.6058 11.1453 14.38 11.8584 16.0666C12.4018 17.3505 13.1609 18.4798 14.3255 19.2473C15.7776 20.2044 18.6099 19.4311 19.832 17.9517C19.9758 18.3689 19.7371 18.5674 19.625 18.795C19.1764 19.6937 18.5064 20.4991 17.7099 21.1119C17.0601 21.6109 16.1917 22.0106 15.2917 21.8005C15.3147 22.3083 15.1134 22.7664 15.0587 23.4142C14.9984 24.1145 15.3233 25.1825 16.0019 25.5706C18.6415 27.0822 22.5378 25.7574 23.4838 22.8452C23.3314 22.781 23.041 22.7139 23.0007 22.5913L21.9397 14.7506L23.202 14.7389C24.5362 14.5726 25.5225 13.2507 25.3327 11.9405C25.1803 10.8696 24.3378 10.213 23.2998 10.394C22.5004 10.534 21.9454 11.2139 21.7269 11.9639C21.494 12.0397 21.4307 11.7042 21.3646 11.6225C20.3553 10.356 19.694 8.96413 19.5071 7.44092C17.8709 8.12957 16.3498 8.84449 14.6447 8.99915L13.3277 9.11879L12.3472 9.01665C11.9188 9.08377 11.5507 8.94079 11.1711 8.72777H11.174Z" fill="#F4C7B2"/>
<path d="M17.2498 12.4748C16.8973 12.4748 16.6115 12.1848 16.6115 11.827C16.6115 11.4692 16.8973 11.1792 17.2498 11.1792C17.6024 11.1792 17.8882 11.4692 17.8882 11.827C17.8882 12.1848 17.6024 12.4748 17.2498 12.4748Z" fill="#161F34"/>
<path d="M14.2709 14.0705C14.383 14.2836 14.5182 14.4411 14.7195 14.4411C14.9207 14.4411 15.2198 14.3448 15.1048 14.0851C14.8057 14.1201 14.6476 14.0005 14.5556 13.8955C14.3888 13.7058 14.7137 13.5511 14.7367 13.4227C14.8632 12.7312 14.8834 11.8674 14.5757 11.1934C14.222 11.8587 14.5757 12.5415 14.3543 13.163C14.2508 13.4578 14.0696 13.6912 14.2709 14.0705Z" fill="#090C23"/>
<path d="M13.2041 12.8801C13.437 12.6817 13.4169 12.0718 13.2185 11.8705C12.9999 11.6458 12.5887 11.7042 12.4104 11.8617C12.1718 12.0748 12.1747 12.4453 12.3098 12.7167C12.445 12.9881 12.859 13.1719 13.2041 12.8772V12.8801Z" fill="#151E34"/>
<path d="M15.3233 16.3119C15.6885 17.0647 17.8335 16.058 17.9169 14.8149C17.1923 15.667 16.485 16.2944 15.3233 16.3119Z" fill="#0D0D1F"/>
<path d="M23.1474 12.7082L24.0963 12.997C24.102 12.9795 24.1451 12.9299 24.1682 12.9095L23.2854 12.4893C23.4435 12.0049 23.9036 11.8794 24.1595 11.4009C23.2365 11.6051 22.6413 12.4572 22.6355 13.3705C22.926 13.2567 22.9863 12.9854 23.1474 12.7082Z" fill="#0D1025"/>
<path d="M3.11984 32.6266C2.20258 35.8248 1.39745 39.0813 0.698715 42.3962C2.29171 42.6734 3.85596 43.0586 5.39145 43.5547C5.5496 40.4615 5.75375 37.3918 6.14481 34.1557C6.15631 34.0594 6.14482 33.9573 6.13332 33.858C6.69978 33.3941 6.84068 33.7647 6.556 34.9698C6.26846 39.3177 6.0873 43.6451 6.0183 47.9434C5.78826 51.1678 5.58698 54.4914 5.55535 57.7538C6.6969 58.0514 7.82983 58.2674 8.95125 58.3958C13.2069 58.9823 18.0463 59.2391 22.3968 58.4366C22.9691 58.2294 23.5154 58.104 24.0416 58.0573C25.58 57.5116 26.7618 57.7888 26.9889 57.1819C26.9487 56.8288 26.7877 56.6391 26.5059 56.6099C25.1026 56.8142 23.7023 57.0797 22.302 57.4124L17.9111 57.6021C26.3851 56.7908 28.6222 47.1059 29.5193 39.9217L30.3446 44.1091L29.9018 47.637C29.9018 47.8558 30.0455 47.8996 30.2439 47.8004L30.8679 44.1178C30.4539 42.8135 30.2094 41.5325 29.9535 40.1931C29.7379 38.7603 29.5653 37.383 29.8529 35.8832C30.1893 36.4784 30.08 37.0854 30.1376 37.6953C30.3618 40.1114 30.9599 42.3699 31.6587 44.8036C34.7038 43.5226 38.0882 42.8485 41.6393 42.9769L40.5898 39.0492C39.753 35.9094 38.7064 32.9243 37.3751 29.9771C36.3801 27.774 34.8217 26.1048 32.6219 25.1419L29.7781 24.2081L23.9122 22.8921C22.9806 25.8247 19.5473 27.237 16.5884 26.3354C15.3951 25.9706 14.6619 24.888 14.6533 23.5895L10.2538 25.0631C8.03686 25.8072 5.2563 27.1903 4.39654 29.376L3.11697 32.6237L3.11984 32.6266Z" fill="#75C7D4"/>
<path d="M26.9889 57.1877C27.7279 56.2685 28.4813 55.3522 29.0478 54.2492L30.2439 47.8033C30.1462 47.7741 30.1289 47.7012 30.1462 47.564L30.5833 44.1062C30.3187 42.1102 29.689 40.231 29.5222 38.168L28.9299 42.3057C28.441 45.7227 27.4001 49.0201 25.787 52.0811C24.8554 53.8495 23.3055 55.2384 21.6579 56.2539C20.4876 56.9747 19.1505 57.1001 17.8594 57.3657C17.2239 57.497 16.6632 57.7304 15.9932 57.7188C15.7747 57.7159 15.582 57.6808 15.513 57.961L22.0691 57.6838C22.9259 57.6487 23.6649 57.319 24.4873 57.1877L26.6468 56.8434C26.6813 56.9922 26.7158 57.0739 26.7733 57.1556C26.8107 57.2052 26.8883 57.1906 26.9861 57.1906L26.9889 57.1877Z" fill="#55A9B7"/>
<path d="M5.6531 42.5069C5.74511 41.9029 5.75661 41.1559 5.6531 40.5314L5.64735 39.5335C5.64735 39.4021 5.69336 39.3117 5.77387 39.2971C5.86589 38.9907 5.88026 38.5092 5.75949 38.1853L5.86876 37.5638C5.91189 37.5317 5.9464 37.4967 5.95502 37.4558C6.15343 36.344 6.30583 35.1593 6.41797 33.9629L6.26845 33.8637C6.23394 33.7762 6.19081 33.7762 6.13905 33.8608C5.794 35.3607 5.64735 36.8985 5.57546 38.48L5.4662 40.9545L5.36268 43.4319C3.76681 42.968 2.33483 42.5857 0.793594 42.3523C1.43482 39.2854 2.13931 36.2711 3.10546 33.2684C3.18884 33.0117 3.31536 32.7899 3.12558 32.6294C2.54762 34.103 2.15368 35.632 1.7885 37.237L0.609566 42.4427L3.39587 43.0672C4.15212 43.2364 4.8796 43.3561 5.54096 43.7383C5.53808 43.1752 5.45757 42.8133 5.65598 42.5098L5.6531 42.5069Z" fill="#93EDF2"/>
<path d="M8.33017 58.4483L8.31291 58.3549C7.37264 58.1799 6.4525 57.9698 5.55249 57.7159C5.64162 54.4564 5.77964 51.1824 5.96367 47.8938L5.88316 47.6954C6.06431 47.707 6.07007 47.5086 5.89754 47.4473C5.93492 47.033 5.97518 46.6215 6.01543 46.2101C6.15633 43.9807 6.24259 41.5588 6.25984 39.2535C6.25984 39.2243 6.20809 39.1981 6.13908 39.1689C6.14483 38.88 6.16496 38.5882 6.09595 38.2993L6.01543 38.3664L5.95217 40.8322L5.83428 44.6723L5.70776 48.1214L5.63012 50.0444C5.59849 50.8439 5.55824 51.5822 5.50648 52.3905L5.40584 53.9925C5.37709 54.4594 5.31382 54.9058 5.31095 55.361L5.28795 57.9172L7.64581 58.5183C7.89598 58.5825 8.18064 58.6351 8.32729 58.4425L8.33017 58.4483Z" fill="#030812"/>
<path d="M8.95413 58.4014C8.71834 58.3605 8.71259 58.4597 8.94263 58.5531L11.0043 58.8011L12.12 58.9091L15.1421 58.9762C16.114 59.1338 16.9968 59.0141 17.9572 58.9879C20.0591 58.9266 22.0921 58.7544 24.0445 58.0629C24.0589 58.0103 23.9036 57.8965 23.7914 57.9374C22.3106 58.4656 20.8182 58.7515 19.2339 58.7603L13.4542 58.7895L11.5104 58.6523L10.2797 58.5385L8.95413 58.4014Z" fill="#90EEF3"/>
<path d="M6.1362 33.8581H6.2656L6.41512 34.0857C6.18796 35.428 6.1132 36.7528 6.25984 38.063L6.2656 38.9325C6.2656 39.0697 6.22247 39.1572 6.14195 39.1718L6.08444 42.7026L6.01831 46.213C5.9723 46.6215 5.93492 47.033 5.90041 47.4503L5.88604 47.6983L6.02406 47.9463C6.07869 47.9463 6.1247 47.9026 6.12758 47.8121L6.20521 44.2871L6.33748 40.7359L6.41225 38.4306C6.44963 37.3043 6.66241 35.9649 6.64516 35.0691C6.63653 34.6314 6.94133 33.9923 6.66816 33.6363C6.43812 33.4787 6.17358 33.7063 6.13908 33.8552L6.1362 33.8581Z" fill="#8EE7ED"/>
<path d="M8.33016 58.4483L8.94263 58.5533L8.95413 58.4016L5.65599 57.6954L5.679 55.2413C5.68475 54.7861 5.8314 54.3513 5.77389 53.8728C5.70775 53.3154 5.85152 52.8048 5.8774 52.2679L5.96654 50.2515L6.0183 47.9433C6.0183 47.8354 5.9953 47.7303 5.88028 47.6953C5.98954 48.3344 5.80839 48.9822 5.79114 49.6591C5.74801 51.229 5.57548 52.7552 5.55248 53.9983L5.51797 55.8512C5.50647 56.5369 5.31957 57.1935 5.46334 57.8442L8.32728 58.4453L8.33016 58.4483Z" fill="#90ECF1"/>
<path d="M6.26558 33.861L6.00391 35.8394C5.92053 36.4493 5.96078 37.0183 5.86589 37.5611C5.8774 37.6895 5.84289 37.8499 5.99241 37.9521L6.04992 36.8199C6.07293 36.8199 6.11606 36.8374 6.13619 36.8841L6.13043 37.8208C6.13043 37.9521 6.17644 38.0425 6.25696 38.06L6.3576 36.5806C6.42373 35.6206 6.45249 34.5555 6.67102 33.7647C6.42661 33.683 6.35472 33.7939 6.26271 33.861H6.26558Z" fill="#030812"/>
<path d="M5.65312 42.5072V43.6802C5.67613 43.7298 5.71639 43.7473 5.75089 43.7473L5.7739 40.66C5.7739 40.5754 5.69913 40.52 5.65312 40.5287V42.5042V42.5072Z" fill="#030812"/>
<path d="M5.771 39.2973V40.2253C5.79688 40.2719 5.83713 40.2895 5.86301 40.2924L5.90039 38.4278C5.90039 38.2935 5.85438 38.2001 5.75662 38.1885L5.771 39.3002V39.2973Z" fill="#030812"/>
<path d="M5.89753 47.4502C5.97804 47.4356 6.02405 47.3451 6.02405 47.2138L6.0183 46.2158C5.93778 46.2304 5.89178 46.3209 5.89178 46.4522L5.9004 47.4531L5.89753 47.4502Z" fill="#75C7D4"/>
<rect x="-3" y="39.9941" width="63" height="61" fill="url(#paint0_linear_516_1624)"/>
<defs>
<linearGradient id="paint0_linear_516_1624" x1="28.5" y1="100.994" x2="28.5" y2="39.9941" gradientUnits="userSpaceOnUse">
<stop offset="0.0487761" stop-color="#75DEE3"/>
<stop offset="1" stop-color="#75DEE3" stop-opacity="0"/>
</linearGradient>
</defs>
</svg>
