<svg width="80" height="80" viewBox="0 0 80 80" fill="none" xmlns="http://www.w3.org/2000/svg">
<g clip-path="url(#clip0_873_1797)">
<path d="M40 80C62.0914 80 80 62.0914 80 40C80 17.9086 62.0914 0 40 0C17.9086 0 0 17.9086 0 40C0 62.0914 17.9086 80 40 80Z" fill="url(#paint0_linear_873_1797)"/>
<path d="M40 80C62.0914 80 80 62.0914 80 40C80 17.9086 62.0914 0 40 0C17.9086 0 0 17.9086 0 40C0 62.0914 17.9086 80 40 80Z" fill="#FDFDFD"/>
<path d="M39.9999 73.8309C58.6843 73.8309 73.8309 58.6843 73.8309 39.9999C73.8309 21.3156 58.6843 6.16895 39.9999 6.16895C21.3156 6.16895 6.16895 21.3156 6.16895 39.9999C6.16895 58.6843 21.3156 73.8309 39.9999 73.8309Z" fill="#F0F9FB"/>
<path d="M31.2793 64.9671C32.5775 61.5065 36.4857 59.7203 40.0134 59.7875C43.5411 59.8412 47.145 61.7259 48.7208 64.9671C45.8333 65.1238 43.2412 64.7612 40.4074 64.7254C37.493 64.6134 34.2608 64.8015 31.2748 64.9671H31.2793Z" fill="#4998A2"/>
<path d="M24.9984 51.7559C27.0925 51.7559 28.7902 48.9739 28.7902 45.5421C28.7902 42.1104 27.0925 39.3284 24.9984 39.3284C22.9042 39.3284 21.2065 42.1104 21.2065 45.5421C21.2065 48.9739 22.9042 51.7559 24.9984 51.7559Z" fill="#4998A2"/>
<path d="M19 36C23.269 36.7913 27.6904 39.5913 30 43C25.7259 42.2181 21.3198 39.3993 19 36Z" fill="#4998A2"/>
<path d="M58.7935 45.5421C58.7935 48.9758 57.0968 51.7559 55.0017 51.7559C52.9065 51.7559 51.2098 48.9713 51.2098 45.5421C51.2098 42.1129 52.9065 39.3284 55.0017 39.3284C57.0968 39.3284 58.7935 42.1129 58.7935 45.5421Z" fill="#4998A2"/>
<path d="M60 36C57.6802 39.3993 53.2741 42.2181 49 43C51.3096 39.5913 55.731 36.7913 60 36Z" fill="#4998A2"/>
</g>
<defs>
<linearGradient id="paint0_linear_873_1797" x1="5.35423" y1="60.0022" x2="74.6458" y2="19.9978" gradientUnits="userSpaceOnUse">
<stop stop-color="#EBB34D"/>
<stop offset="0.03" stop-color="#EBB64D"/>
<stop offset="0.18" stop-color="#EEC04F"/>
<stop offset="0.55" stop-color="#F0CC50"/>
<stop offset="1" stop-color="#F3D652"/>
</linearGradient>
<clipPath id="clip0_873_1797">
<rect width="80" height="80" fill="white"/>
</clipPath>
</defs>
</svg>
