<svg width="65" height="100" viewBox="0 0 65 100" fill="none" xmlns="http://www.w3.org/2000/svg">
<path d="M21.7679 32.5713C21.8946 32.758 22.0514 32.8072 22.2516 32.8039L22.5251 32.9185L26.4584 28.5854C27.9896 27.01 30.048 26.2468 32.2064 25.9258L35.9361 25.3494L36.0929 25.0448C36.3698 25.0252 36.4532 24.8745 36.2564 24.6747C35.9795 24.3898 34.9353 24.6944 34.5684 24.8221L34.3982 24.5699L30.485 25.2184C29.6543 23.0305 29.8979 20.525 31.1722 18.5336C31.2123 17.9866 30.852 18.062 30.4583 18.2356C28.7369 18.9954 28.6302 23.7904 29.194 25.4247C26.5885 24.4127 27.8061 20.1974 28.5868 18.1995C29.0338 17.908 29.284 17.3905 29.3741 16.8796C30.2515 15.7922 30.9254 14.6098 31.4024 13.3358L32.867 7.97091C33.9479 5.10507 35.6059 2.18354 39.0654 2.07546C41.6475 0.110308 45.4506 0.280621 48.0661 2.17044L48.4965 2.14751C48.6299 2.79929 49.6874 3.58863 50.3513 3.66396C50.3013 3.82772 50.3413 3.962 50.428 4.09957C51.8092 6.24158 52.6665 8.15105 53.0635 10.6992C53.6807 13.0574 54.6982 15.0651 56.3029 16.9517C57.9409 19.4572 58.3579 21.9431 55.8125 24.0295C56.2962 22.0971 55.689 19.0773 54.1344 17.7246C53.7341 17.3774 53.2036 17.4528 53.1736 18.039C54.9117 19.9485 55.3888 23.453 54.1911 25.7031C53.664 26.6923 53.4472 26.6431 52.4731 26.2337L52.2429 26.4597C52.026 26.535 52.0927 26.653 52.4464 26.8102L53.9543 27.5536C54.0043 27.4619 54.031 27.3637 53.9342 27.2458C54.7282 26.6661 54.9517 25.5787 55.619 24.8483C56.1127 24.3079 57.0301 24.1048 57.5005 23.3613C58.448 21.8613 58.7282 19.9256 57.9642 18.2454C56.8767 15.8544 54.7449 14.6033 53.8709 10.6239C53.4639 8.77662 52.9935 6.98506 52.0827 5.31796C50.6716 2.73706 48.2796 0.893093 45.3939 0.238043C43.0587 -0.292548 40.7234 0.0382522 38.7885 1.48919C34.505 1.81016 32.4967 6.03196 31.6226 9.93279C30.8853 13.2211 30.038 15.6154 27.3391 17.8032C26.1448 18.7694 25.4942 20.2269 25.3375 21.7761C25.2374 22.7718 25.551 23.8002 25.988 24.6878L26.6786 25.3985C26.8954 25.6245 27.2157 25.7162 27.4192 25.5656C26.0981 24.4913 25.6277 22.7751 25.9947 21.1997C26.3249 19.7847 26.9321 18.4517 28.1664 17.5871C26.9121 19.6636 26.4283 22.0611 27.2023 24.321C27.4525 25.0481 27.9496 25.7392 28.6869 25.9946L26.8454 27.1541L24.5301 29.4467L23.189 30.9239L21.7645 32.5844L21.7679 32.5713Z" fill="#0E1E35"/>
<path d="M34.5717 24.8187C34.4883 24.9858 34.3015 24.9236 34.2081 24.9825L34.2848 25.0873L35.9995 24.7991C36.1463 24.8679 36.1296 24.9825 36.0963 25.0415C36.0029 25.2609 36.2397 25.4378 36.3031 25.5884C36.4266 25.4476 36.5233 25.3002 36.5667 25.143C38.9353 25.2871 39.2889 22.7062 38.9086 20.8753C38.6884 20.086 39.0053 19.919 39.8627 20.371C40.0028 21.1013 41.3072 21.3568 42.0145 21.4321C42.7217 21.5075 44.0428 21.5206 44.313 20.8328C44.6633 20.7804 44.9702 20.7181 45.2338 20.6395C45.2938 20.5445 45.3539 20.4168 45.4973 20.348L45.484 22.3296C45.4773 23.0894 45.3706 24.1604 45.961 24.7532C46.4781 25.2707 47.4222 25.2609 48.0628 25.4672L49.3638 25.8832L52.4497 26.8003C52.2996 26.6987 52.3063 26.5252 52.2462 26.4498L52.3563 26.2893C51.2954 24.7631 50.1645 23.2532 48.9635 21.7662C48.4631 20.9408 48.4131 20.2301 48.6399 19.3098C48.7133 19.015 49.2671 17.3282 49.3372 17.2431C49.8876 17.3872 50.6649 17.0826 51.1586 16.7682C51.5256 16.5324 52.1928 16.0542 51.8726 15.6415C52.0694 15.2321 51.7825 15.219 51.4055 15.422C50.8517 16.2671 49.7141 16.8206 48.7166 16.4603C48.4898 16.7452 48.2496 16.9942 47.9994 17.2103C47.5657 17.3577 47.1821 17.6852 46.8451 18.1962C43.0987 21.668 38.7151 20.05 36.6167 15.8053C34.892 16.3981 32.9537 15.088 33.3273 13.2571C33.5809 12.0125 34.8152 11.5867 35.8261 12.3073C36.1864 12.8018 36.5033 12.9361 36.7802 12.7069C37.0671 11.3673 38.3581 6.3758 39.7693 6.02208C42.0812 8.99928 45.3038 11.0005 48.78 12.3237L49.0803 12.1566C49.197 12.697 49.2738 13.2407 49.3105 13.791L49.7041 13.6239C49.6941 12.7986 50.0144 12.4547 50.6582 12.589L50.8851 12.3368C51.2387 12.042 50.9418 11.8782 49.9944 11.8455C46.3614 10.1718 42.8518 8.3475 40.3198 5.105C39.0787 3.61476 37.9745 4.63009 37.4441 6.0188L35.8628 11.2133C31.3591 9.95238 31.0321 16.3948 35.0755 16.7256C35.4558 18.1209 35.6392 19.5128 35.6259 20.9015C35.1789 22.1199 34.7385 23.3416 34.3115 24.5698L34.5684 24.822L34.5717 24.8187Z" fill="#0F474A"/>
<path d="M34.5717 24.8189C34.6551 23.5382 35.9161 21.9465 35.9628 20.4661C36.0029 19.133 35.5391 17.8852 35.2556 16.5554C33.771 16.4408 32.6368 15.2813 32.5267 13.8599C32.4533 12.933 32.8169 12.1436 33.4975 11.6949C34.2748 11.1807 35.0754 11.1611 36.1463 11.6196C36.4032 9.85424 37.0137 8.34435 37.5108 6.71C37.7943 5.7831 38.1079 4.87585 39.1788 4.55816C39.9094 4.97084 40.4665 5.66192 41.037 6.29731C42.9319 8.4033 45.1737 9.89682 47.7658 11.0694L49.217 11.7277C49.6841 11.9373 49.9777 12.3205 50.6282 12.1469C50.7183 12.124 50.8984 12.2386 50.8817 12.3303L50.9685 12.6284C52.0994 12.9887 52.2295 14.4068 51.7091 15.337L51.8659 15.6383C51.3621 16.5128 50.3313 17.0467 49.1837 17.0401C48.3063 19.1265 47.6224 20.5938 49.0169 22.3297L50.448 24.1114L51.6791 25.8047C51.8525 26.0438 52.1061 26.2796 52.2428 26.4467C52.6632 26.5416 53.0835 26.7906 53.5573 26.8102C54.518 26.1879 54.7249 25.1824 54.9351 24.1835C55.4121 21.9301 55.0018 19.7389 53.4138 17.9703C53.3638 17.9146 53.5673 17.7378 53.634 17.7672C53.7007 17.7967 53.8408 17.7967 53.9442 17.9114C55.5089 19.6571 56.1127 22.0578 55.4088 24.3833C56.2895 24.3243 56.7199 23.702 57.1168 23.0142C59.739 18.4845 55.1819 16.1427 54.1344 13.0083L53.3337 10.6141C52.7933 8.0987 52.0927 5.413 50.348 3.65091C49.9276 3.46095 49.8042 3.72624 49.981 4.45007L49.5173 4.62694C48.8868 5.80603 47.102 5.31146 46.0544 4.90533L45.7875 5.10512C45.5774 4.95446 45.534 4.85293 45.6508 4.81035L45.991 4.71537C46.6182 3.80812 47.4189 3.04826 48.3863 2.43579L48.4898 2.13447C47.6191 1.44667 46.7483 0.961928 45.5941 0.686807C41.107 -0.384201 39.2455 1.78729 38.9353 1.81022C38.1846 1.86917 37.4274 1.95105 36.7301 2.32443C34.2181 3.67384 32.9337 6.41522 32.2131 9.13368L31.1689 13.0869C30.8053 14.4691 29.9145 15.5728 29.1105 16.7552C29.0038 17.2891 28.7836 17.7279 28.3532 18.0325C27.4458 20.0665 27.0955 22.179 27.6093 24.321C27.7494 24.9073 28.857 25.9062 29.3741 25.6639C29.8411 25.4444 28.3633 22.8832 29.7077 19.6931C29.9746 19.0642 30.3182 18.5075 31.0254 18.2422C29.5042 20.5054 29.4108 23.0142 30.2348 25.5296L34.5683 24.8123L34.5717 24.8189Z" fill="#00282A"/>
<path d="M45.6575 4.81358C45.4873 4.84305 45.534 4.94459 45.7942 5.10835L46.6249 5.40312C47.3789 5.67169 48.5765 5.72737 49.3271 5.36382C49.514 5.17385 49.6307 4.59741 50.1545 4.771C50.4848 4.35504 49.9276 3.82773 50.3513 3.65414C49.7909 3.08752 49.1136 2.62571 48.4965 2.1377C48.333 2.16717 48.1762 2.18355 48.0428 2.29818L46.5215 3.59518C46.1112 3.94563 45.8176 4.35504 45.6575 4.8103V4.81358Z" fill="#094649"/>
<path d="M49.0803 12.1567C49.2004 13.873 48.9435 15.7235 47.996 17.2105C48.2996 17.5707 48.373 16.4932 49.0002 16.7716C49.5473 17.0139 49.9443 16.824 50.4147 16.5783C50.9151 16.3163 51.4188 16.1296 51.639 15.5073L51.8692 15.6416C52.2428 14.9931 52.4197 14.3053 52.1828 13.5192C51.996 12.9035 51.5122 12.4122 50.8851 12.3336C50.6115 12.2976 50.1278 12.2321 49.8676 12.4089C49.4272 12.7135 49.5473 13.3096 49.3905 13.6863C49.237 13.2114 49.5139 12.422 49.0803 12.1567Z" fill="#090E24"/>
<path d="M45.7976 5.11172L45.6608 4.81695C45.3205 4.84315 45.1137 4.58113 44.8301 4.39444C43.8426 3.73939 41.5608 3.05159 41.2872 3.72957C43.3723 3.5134 44.5199 4.66301 45.7976 5.115V5.11172Z" fill="#0A152C"/>
<path d="M34.5016 49.2948C35.7393 49.4258 36.9636 49.8417 38.1713 50.5459C39.6258 50.6605 39.1655 49.7107 38.3648 49.0327C36.6734 47.6015 34.7285 47.7751 32.7902 48.3777L29.9245 49.8188C27.9563 50.0219 26.5284 47.4311 25.0739 45.9704L22.9722 43.8644C22.0547 42.9441 20.9772 42.3578 19.5994 41.9582C20.1198 41.7224 20.6202 41.8861 21.0773 42.122L22.772 42.9834L24.043 41.7944C22.5885 39.9046 20.5302 38.4897 18.1149 37.8838C16.8872 39.0924 15.913 40.3926 15.1291 41.8272C13.9047 44.0675 15.5494 45.8656 17.4476 47.5229C20.4334 50.13 23.9029 52.1966 27.5693 53.7557C28.9971 54.3649 30.3349 54.3157 31.696 53.6541C33.5875 52.7338 33.6976 53.1039 34.972 53.7098C35.6959 54.0537 36.4632 54.0144 36.9636 53.3528C35.9261 52.0525 34.4483 51.535 32.8436 51.0929C34.4216 50.7719 35.786 51.761 36.8836 52.6781C37.2639 52.9958 37.6876 53.0515 38.1313 52.832C38.4215 52.6879 38.7751 52.1639 38.5249 51.7643C37.6909 50.4378 35.1355 49.7992 33.4808 49.4389C33.8578 49.2522 34.2047 49.357 34.5083 49.298L34.5016 49.2948Z" fill="#F4C7B1"/>
<path d="M57.9475 70.6494C57.8208 71.1145 58.3245 71.7532 58.7282 71.6058C59.1952 71.4355 59.4287 70.8918 59.5488 70.4758L60.2995 67.8687C60.4095 67.4921 60.4796 67.0827 60.95 66.9484L60.4529 69.0151C60.2361 69.9158 59.9925 70.8492 59.4221 71.5927L57.9675 73.4923C57.744 73.7838 57.8441 74.1736 58.0776 74.3996C59.0318 75.3167 62.8215 71.6549 61.8874 66.7912L58.2878 48.0502L57.7374 44.7979C56.0526 44.8535 54.3879 45.0599 52.84 45.7215C52.5431 45.8492 52.7833 46.3765 52.7333 46.5698C52.4463 47.7292 52.4931 48.8985 52.88 49.9858L53.6206 52.0689C56.5897 58.3705 57.6706 64.4264 56.5664 71.3045C58.9183 69.8339 55.9159 67.3873 58.2411 64.8326C58.1477 65.8446 57.5806 66.7158 57.7707 67.6722C57.9609 68.6286 58.2511 69.5293 57.9409 70.6494H57.9475Z" fill="#F4C6B1"/>
<path d="M36.5633 25.1431C36.8969 25.7163 37.1438 26.427 37.7176 26.9085C40.2964 29.0734 44.7967 30.4294 47.3422 28.3987C48.1462 27.7568 48.5131 26.784 48.4831 25.8047L46.1245 25.1628C45.0403 24.868 45.2438 22.2445 45.2304 20.6364C45.2271 20.5545 45.2104 20.4726 45.1404 20.4005L44.3063 20.8296L44.4331 21.1539C44.7267 20.9803 44.75 22.179 44.7267 22.238C44.6099 22.5164 43.6525 22.7129 43.3255 22.6768C42.3848 22.5786 41.3206 21.9366 40.5433 21.4322C39.9094 21.3045 39.4857 21.0523 39.2755 20.6757C39.7226 20.7837 39.9161 20.6789 39.8594 20.3711L38.7251 19.6309C38.7851 20.918 38.8118 22.0545 38.605 23.2631C38.2781 25.1562 36.7068 24.6092 36.5633 25.1431Z" fill="#F4C7B1"/>
<path d="M56.3529 74.1378C56.3462 74.4981 57.3003 74.5013 57.347 74.1902C57.4771 73.319 57.8107 72.7458 58.4946 72.0547C57.8041 71.8385 57.5472 71.475 57.4971 70.8003L56.6331 71.891C56.3562 72.5722 56.3629 73.3288 56.3495 74.1345L56.3529 74.1378Z" fill="#EEC2AE"/>
<path d="M32.7902 48.3779C32.7602 48.4466 32.9637 48.5744 33.0638 48.5154C33.7777 48.0798 34.5383 48.106 35.3323 48.0733C36.7101 48.0143 37.8344 48.4761 38.7117 49.5209C38.8752 49.7174 39.2589 50.0613 38.8952 50.3496C38.5316 50.6378 37.9878 50.3725 37.6042 50.176C36.2964 49.5013 34.9086 48.9641 33.5008 49.0984L34.5016 49.2949C35.716 49.534 36.8802 49.9696 38.0145 50.6018C38.3414 50.7852 38.6751 50.7426 38.9453 50.5723C39.1755 50.4282 39.2989 49.9467 39.0787 49.665C37.4874 47.6377 34.8519 47.3429 32.7902 48.3811V48.3779Z" fill="#F3EBD8"/>
<path d="M52.7599 48.0896C52.7766 49.2229 53.1035 50.2742 53.5939 51.4173L55.0652 45.3057L52.8333 45.9116C52.9901 46.6551 52.7499 47.3822 52.7599 48.0929V48.0896Z" fill="#DDA894"/>
<path d="M47.996 17.2105C48.5064 16.8535 48.7433 16.3917 48.9568 15.8218C49.4138 14.6132 49.3638 13.3752 49.0802 12.1568L45.8943 10.696C44.0728 9.86084 42.5616 8.7014 41.2338 7.22426L39.826 5.65869C37.8077 6.81813 37.0704 10.3194 36.5266 12.7169C36.1096 12.0323 35.5958 11.7343 34.9486 11.6884C34.3949 11.6491 33.7643 11.8587 33.4074 12.3631C32.7502 13.2933 32.9303 14.5182 33.6576 15.3371C34.3849 16.1559 35.4324 16.4441 36.5099 16.0085C37.4407 18.1865 39.3356 20.0141 41.8476 20.3154C44.3597 20.6168 46.725 19.1986 47.996 17.2072V17.2105Z" fill="#F4C7B1"/>
<path d="M44.3097 20.833C42.8318 21.4258 41.2171 21.2555 39.8594 20.3712C39.6292 20.5448 39.3223 20.3712 39.062 20.0601C38.8952 20.3286 38.9453 20.7872 39.1688 21.0983C39.4457 21.4815 40.1029 21.3407 41.057 22.094C41.5007 22.4444 42.0211 22.5263 42.5249 22.749C43.3756 23.129 44.343 23.0274 44.9769 22.3429L44.9569 20.7577C44.7133 20.9247 44.5032 20.9215 44.313 20.833H44.3097Z" fill="#DBA692"/>
<path d="M45.9277 13.054C45.5168 13.054 45.1837 12.727 45.1837 12.3236C45.1837 11.9203 45.5168 11.5933 45.9277 11.5933C46.3385 11.5933 46.6716 11.9203 46.6716 12.3236C46.6716 12.727 46.3385 13.054 45.9277 13.054Z" fill="#131C31"/>
<path d="M39.5491 13.0442C39.1474 13.0442 38.8218 12.7245 38.8218 12.3302C38.8218 11.9359 39.1474 11.6162 39.5491 11.6162C39.9508 11.6162 40.2764 11.9359 40.2764 12.3302C40.2764 12.7245 39.9508 13.0442 39.5491 13.0442Z" fill="#151E33"/>
<path d="M42.7384 14.3773C42.6183 14.5182 42.9085 14.7278 43.0286 14.6524C43.3055 14.4756 43.8326 13.8172 43.5157 13.2932L43.1254 11.4722C42.7984 12.2517 42.9852 12.9919 43.1254 13.7059C43.1887 14.0269 42.9285 14.1546 42.735 14.3773H42.7384Z" fill="#0F1022"/>
<path d="M40.8535 16.015C41.7075 16.8436 43.3122 17.3709 44.1962 16.3425C42.9819 16.539 41.9344 16.6143 41.107 15.7857C41.0136 15.694 40.7634 15.8217 40.8568 16.015H40.8535Z" fill="#090A1D"/>
<path d="M38.0579 10.7254L40.223 10.7647C39.7192 10.1096 38.9219 10.2014 38.2213 10.2636C38.0646 10.2767 37.9511 10.7221 38.0579 10.7254Z" fill="#12162D"/>
<path d="M34.4949 14.4985L35.4124 14.1317C35.3123 14.4592 35.5858 14.7376 35.7593 14.6361C35.8494 13.9516 35.1955 13.3293 34.535 13.0083C34.5483 13.516 35.0154 13.6404 35.2189 13.9221L34.5583 14.2529C34.4482 14.3086 34.4583 14.4429 34.4949 14.4985Z" fill="#0B0D1C"/>
<path d="M50.2979 14.0204C50.0777 14.3414 49.7441 14.384 49.4072 14.4757L48.8334 16.5522C49.6974 16.7978 50.5748 16.4441 51.1653 15.8447C51.7558 15.2454 52.036 14.3283 51.7925 13.5193C51.5223 12.6252 50.2812 12.35 50.0344 12.5203C49.6407 12.7922 49.9176 13.5193 49.4172 14.1449L50.2979 14.0204Z" fill="#F3C8B3"/>
<path d="M45.2338 20.6394L45.047 20.7311C45.1704 21.3993 45.1404 22.051 44.9535 22.6832C44.8601 23.8131 45.1704 24.7106 45.8876 25.3722L48.2029 26.037C48.1562 27.6026 47.0486 28.5983 45.544 28.9684C42.7517 29.6562 38.0379 27.9334 36.9069 25.1855L36.5633 25.1494C36.2564 25.1396 36.193 25.3197 36.2998 25.5949L36.1763 25.9977C38.4148 30.2916 48.0027 32.5122 49.1336 26.3482C49.4906 26.358 52.6332 27.3963 53.0235 27.5993C54.7716 28.4967 55.3387 29.3549 55.9459 31.1333C56.9534 35.3748 57.6273 39.6981 58.2978 44.0247C56.4763 44.0902 54.6782 44.3817 52.9468 44.8534L52.7433 45.1874C52.6465 44.0247 53.1569 42.9111 53.8375 41.9417C53.9943 41.6076 54.1111 41.0803 53.7007 41.3456C53.2904 41.6109 52.0594 44.2016 52.2862 44.8861C52.2462 45.9768 52.1394 47.0445 51.976 48.0828L51.8459 47.8044C47.162 47.8535 42.5015 47.7749 37.8577 47.5718C36.3098 47.1591 34.3548 46.8545 32.9737 47.7192L32.7702 47.6733C31.6993 44.7092 30.852 41.7058 30.2281 38.6599C30.4617 38.4339 30.6585 38.198 30.8186 37.9524C31.1322 38.1686 31.2456 38.0015 31.259 37.674C31.3624 37.5823 31.706 37.0452 31.716 37.0026C31.7861 36.639 31.1222 36.7111 30.8353 36.8126C28.8837 38.4077 26.8987 39.97 24.8837 41.4995C23.2591 39.5114 21.1273 37.9426 18.5752 37.3399L22.355 33.105L22.2516 32.8004C22.2516 32.4565 22.0514 32.4369 21.7679 32.5679L20.7971 33.5374L17.4643 37.4742C17.4376 37.6904 17.4276 37.9884 17.2074 38.2046C16.0665 39.3116 15.1558 40.5923 14.4652 42.0203C14.0515 42.8751 14.0515 43.7692 14.4151 44.6601C15.3626 46.9823 19.6228 50.1396 22.0014 51.4661L24.3533 52.7762L26.3349 53.7522C27.3658 54.2599 28.4133 54.6038 29.6743 54.6529C27.6894 58.4489 27.1589 61.4032 26.475 65.4874L23.0522 85.9414L21.2775 94.2016L19.8496 99.9529H30.4483L31.9495 97.015C35.6292 89.0005 38.8919 80.8549 41.9477 72.6308L41.9411 74.8514L41.8043 76.7969L41.6608 79.2992L41.5074 81.3659L41.3773 83.3212L41.2272 85.3911L41.0904 87.0583L39.9328 98.6363C39.8894 99.0751 39.7393 99.4453 39.9428 99.9365H49.524L50.8217 96.2715C52.9801 89.1937 54.6348 82.0864 56.0393 74.7564L57.644 74.8841C58.4746 74.9496 59.2553 75.0577 59.9525 74.4256C62.0442 72.5227 62.9917 69.6077 62.4612 66.8205L60.9033 58.6225L58.5113 45.8818C58.4446 45.5281 58.518 45.2431 58.3145 44.9025C58.6648 44.9254 58.8916 44.9156 59.0651 44.8403C59.1785 44.7911 59.262 44.5357 59.2319 44.3457L58.4513 39.2756C58.0843 36.8879 57.7007 34.5854 57.1469 32.2338C56.8633 31.0285 56.5164 29.9149 55.8291 28.952C55.3721 28.6965 54.6582 27.9858 54.4046 27.5502C54.3779 27.5043 54.3279 27.4683 54.2745 27.4356C54.1911 27.3995 54.1111 27.2816 53.9309 27.2423C53.7408 27.3406 53.8342 27.4257 53.8609 27.357C53.9643 27.0982 52.6932 26.7117 52.4397 26.8067L51.7658 26.3154L48.0561 25.1822C46.6383 25.1331 45.8743 24.5861 45.7642 23.5413L45.7575 20.4003C45.3906 20.0007 44.9769 20.1121 45.2238 20.6427L45.2338 20.6394ZM32.7902 48.3775C34.8553 47.3393 37.4874 47.634 39.0787 49.6614C39.3022 49.9464 39.1755 50.4246 38.9453 50.5687C38.6751 50.739 38.3415 50.7816 38.0145 50.5981C36.8803 49.966 35.716 49.5304 34.5016 49.2913C34.1981 49.3503 33.8511 49.2455 33.4741 49.4322C35.1288 49.7924 37.6842 50.4311 38.5183 51.7576C38.7685 52.1572 38.4148 52.6812 38.1246 52.8253C37.6809 53.048 37.2572 52.9924 36.8769 52.6714C35.7793 51.7543 34.4182 50.7652 32.8369 51.0862C34.4449 51.5283 35.9228 52.0458 36.957 53.3461C36.4566 54.0077 35.6893 54.0503 34.9653 53.7031C33.6876 53.0939 33.5809 52.7271 31.6893 53.6474C30.3282 54.309 28.9904 54.3581 27.5626 53.7489C23.8963 52.1899 20.4268 50.1232 17.441 47.5161C15.5427 45.8589 13.8981 44.0607 15.1224 41.8205C15.9064 40.3826 16.8805 39.0824 18.1082 37.8771C20.5235 38.483 22.5819 39.8979 24.0364 41.7877L22.7653 42.9766L21.0706 42.1152C20.6136 41.8827 20.1132 41.7189 19.5927 41.9515C20.9739 42.3511 22.0481 42.9373 22.9655 43.8577L25.0672 45.9637C26.5218 47.4212 27.9496 50.0119 29.9179 49.8121L32.7836 48.371L32.7902 48.3775ZM26.058 46.3862C25.1139 45.3348 24.2933 44.2998 23.1723 43.3205L23.8162 42.8915C24.1832 42.6491 24.7403 42.7834 25.1139 42.4853L28.0764 40.1272L29.4608 38.8564L29.8712 40.7167L32.083 48.1286L30.6585 49.049C29.9012 49.537 28.9704 49.5959 28.3099 48.8655L26.9855 47.4081L26.0614 46.3796L26.058 46.3862ZM57.9475 70.6492C58.2545 69.5258 57.9776 68.6677 57.7774 67.672C57.5772 66.6764 58.1544 65.8444 58.2478 64.8324C55.9259 67.3871 58.925 69.8337 56.5731 71.3043C57.6773 64.4263 56.5964 58.3703 53.6273 52.0687L52.8867 49.9857C52.4997 48.8983 52.453 47.729 52.7399 46.5696C52.7866 46.3763 52.5498 45.849 52.8467 45.7213C54.3913 45.0597 56.056 44.8534 57.744 44.7977L58.2945 48.05L61.8941 66.791C62.8282 71.6547 59.0384 75.3165 58.0843 74.3994C57.8508 74.1734 57.7507 73.7837 57.9742 73.4922L59.4288 71.5925C59.9959 70.849 60.2428 69.9189 60.4596 69.0149L60.9567 66.9482C60.4863 67.0858 60.4162 67.4919 60.3061 67.8686L59.5555 70.4757C59.4354 70.8916 59.2019 71.4353 58.7349 71.6056C58.3312 71.753 57.8274 71.1111 57.9542 70.6492H57.9475ZM39.3323 50.8307C39.6158 50.5425 39.7559 50.3132 39.7293 49.9758C39.6959 49.5402 39.0153 48.8524 38.4082 48.5315L46.8084 48.633L46.8684 50.8209L39.3323 50.8307ZM47.1987 50.8209L47.0719 48.6395L51.986 48.6494C52.066 49.4453 52.2295 50.1134 52.463 50.8372L47.1987 50.8209ZM47.2888 51.5578C47.2888 51.5087 47.182 51.3744 47.2254 51.3515C47.2688 51.3285 47.3922 51.3515 47.489 51.3515L52.5931 51.2859L54.7282 56.3986L55.9459 61.1281C56.2028 62.1205 56.2562 63.1489 56.2461 64.1773C56.3396 64.1937 56.3929 64.2952 56.3929 64.4426L56.3863 65.8412V66.3947L56.3929 67.5148C56.3929 67.6622 56.3396 67.767 56.2461 67.7801L56.1127 69.9975L55.9726 71.2552L54.9751 76.9312C53.9276 82.8921 52.3796 88.7385 50.6849 94.6143L49.0936 99.4158C49.0803 99.4518 48.9735 99.5402 48.8934 99.5402H40.4031C40.6267 99.0883 40.5166 98.6788 40.5599 98.2924C41.404 90.9001 41.9411 83.5177 42.4782 76.0403L42.9452 69.5422L43.946 66.2506C44.243 65.2713 44.8801 64.4525 45.7776 64.0267L47.589 63.1686C46.9085 62.9033 46.3013 63.2734 45.7008 63.5223C44.5199 64.0136 43.7325 64.8913 43.3622 66.0966L41.9511 70.6722L37.8844 81.5067L31.4258 96.7465L30.0513 99.5337H20.4701L20.9438 97.8764L22.2049 92.7244C23.8229 85.4272 25.0539 78.1725 26.2415 70.7868L27.596 62.3891C28.0263 59.7197 28.9704 57.2535 30.2081 54.8789C30.7385 54.8592 30.9554 54.4433 31.3257 54.2959L33.0504 53.6081C33.1939 53.5491 33.344 53.405 33.5809 53.5721L34.0913 53.9258C34.6918 54.1682 35.3223 54.4171 36.0229 54.4171C36.6334 54.3811 37.1071 54.0765 37.3306 53.5066C38.0879 53.4967 38.6651 53.1168 38.9886 52.4847C39.1621 52.0818 39.0921 51.7052 38.6951 51.2532L46.8151 51.3023L46.9252 52.2521L46.8918 56.9456L46.5282 60.3224C46.9652 59.33 47.1253 58.2819 47.142 57.1716L47.2888 51.5578ZM56.3529 74.1374C56.3662 73.3284 56.3562 72.5751 56.6365 71.8938L57.5005 70.8032C57.5505 71.4779 57.8074 71.8414 58.498 72.0576C57.8141 72.7487 57.4772 73.3218 57.3504 74.1931C57.3037 74.5075 56.3496 74.5042 56.3562 74.1407L56.3529 74.1374Z" fill="#09182B"/>
<path d="M34.0913 53.9254C33.7077 53.6928 33.3607 53.588 33.0538 53.6077L31.329 54.2955C30.9587 54.4429 30.7419 54.8588 30.2115 54.8785C28.9704 57.2498 28.0297 59.7193 27.5993 62.3886L26.2449 70.7864C25.0539 78.1688 23.8262 85.4235 22.2082 92.724L20.9472 97.876C20.9205 98.3902 20.8204 98.9208 20.6469 99.4645H29.9546C30.4783 98.4066 30.9687 97.4993 31.4325 96.746L37.8911 81.5063L41.9578 70.6718L43.3689 66.0962C43.7392 64.8909 44.5265 64.0132 45.7075 63.5219C46.308 63.273 46.9152 62.8996 47.5957 63.1682L45.7842 64.0263C44.8868 64.4521 44.2496 65.2709 43.9527 66.2502L42.9519 69.5418L42.4849 76.0399C41.9478 83.5173 41.4106 90.8997 40.5666 98.292C40.6467 98.6784 40.66 99.0715 40.6133 99.4711C43.449 99.5071 46.278 99.4874 49.1003 99.4154L50.6916 94.6138C52.3863 88.738 53.9309 82.8917 54.9818 76.9308L54.9317 76.6524C56.0193 71.5004 56.5564 66.3517 55.9559 61.1244L54.7382 56.3949H54.6248C54.6248 56.3949 53.9176 54.7377 52.5064 51.4198L47.4256 51.4264C47.3889 53.1819 47.3889 54.9604 47.4189 56.7618C47.4556 54.9964 47.4122 53.2605 47.2921 51.5541L47.1453 57.1679C47.1287 58.2782 46.9685 59.3263 46.5315 60.3187L46.8951 56.9419L46.9285 52.2485L46.8184 51.2986L38.6984 51.2495C39.0954 51.7015 39.1655 52.0782 38.992 52.481C38.6684 53.1131 38.0913 53.4931 37.334 53.5029C37.1071 54.0728 36.6367 54.3774 36.0262 54.4134C35.3256 54.4134 34.6985 54.1645 34.0946 53.9221L34.0913 53.9254Z" fill="#FA4D5E"/>
<path d="M39.3323 50.8305L46.8684 50.8207L46.8084 48.6328L38.4082 48.5312C39.0153 48.8522 39.6959 49.54 39.7292 49.9756C39.7559 50.313 39.6158 50.5423 39.3323 50.8305Z" fill="#CF2F3F"/>
<path d="M47.1987 50.8205L52.463 50.8369C52.2262 50.1163 52.0661 49.4449 51.986 48.649L47.072 48.6392L47.1987 50.8205Z" fill="#CF2F3F"/>
<path d="M47.2888 51.5576L47.3589 56.7555C47.3789 56.8079 47.4222 56.8341 47.469 56.8373V51.5183L52.5331 51.5642L53.981 54.8918L54.6081 56.6932C54.7483 56.5851 54.6982 56.4705 54.7282 56.4017L52.5932 51.2891L47.489 51.3546C47.3889 51.3546 47.2688 51.3284 47.2254 51.3546C47.182 51.3808 47.2888 51.5118 47.2888 51.5609V51.5576Z" fill="#BB3240"/>
<path d="M33.0538 53.6112C33.1205 53.6342 33.2473 53.5523 33.4041 53.7095C33.1439 53.7881 32.9604 53.9551 32.8203 54.227L31.1589 57.4269C30.5717 58.5569 29.5476 59.1857 28.3366 59.6705C29.631 59.7687 30.6852 58.9237 31.2356 57.928L32.5233 55.5829C32.957 54.7936 33.2973 53.8634 34.0946 53.9257L33.5842 53.5719C33.3474 53.4082 33.2006 53.5523 33.0538 53.608V53.6112Z" fill="#21465D"/>
<path d="M54.9784 76.9344L55.9759 71.2584L56.116 70.0007L56.2495 67.7834C56.2962 67.3216 56.3429 66.8598 56.3896 66.398V65.8444C56.3362 65.2909 56.2895 64.7374 56.2528 64.1806C56.2595 63.1522 56.2094 62.1237 55.9526 61.1313C55.659 61.4752 55.8692 61.9633 55.9192 62.4021L56.076 63.7745V68.3271L55.9359 69.7354L55.8091 70.98L54.8283 76.6528C54.8016 76.8067 54.8884 76.9344 54.9784 76.9344Z" fill="#F94F60"/>
<path d="M20.9438 97.8797L20.4701 99.537H30.0513L31.4258 96.7497C31.3791 96.5892 31.2356 96.6285 31.2456 96.7399L29.9145 99.3961H20.7737L21.0706 98.1417C21.104 98.0009 21.0239 97.8731 20.9438 97.8797Z" fill="#E64354"/>
<path d="M49.097 99.4154L40.6967 99.4056C40.7134 98.9601 40.7935 98.5606 40.5633 98.292C40.5199 98.6785 40.63 99.0879 40.4065 99.5366H48.8968C48.9769 99.5366 49.0869 99.4547 49.097 99.4154Z" fill="#EF4254"/>
<path d="M56.3929 65.8411L56.3996 64.4425C56.3996 64.2952 56.3462 64.1903 56.2528 64.1772L56.2428 65.5725C56.2428 65.7199 56.3029 65.828 56.3929 65.8411Z" fill="#FA4D5E"/>
<path d="M56.2495 67.7834C56.3429 67.7703 56.3996 67.6655 56.3963 67.5181L56.3896 66.3979C56.2995 66.4111 56.2395 66.5159 56.2428 66.6665L56.2495 67.7867V67.7834Z" fill="#FA4D5E"/>
<path d="M22.2516 32.8036L18.0448 37.5167C20.7036 38.008 22.9455 39.5277 24.8537 41.899L26.7286 40.4677L30.9154 37.0975C31.0888 36.9567 31.4258 36.9239 31.4792 37.0648L31.259 37.6772C31.5325 38.1227 31.8294 37.7329 31.8895 37.3235L32.1964 37.2842C33.6376 38.0375 35.1422 38.4829 36.7101 38.6205C42.5749 38.7089 48.4231 38.6696 54.2512 38.5026L52.6132 42.125L52.8033 42.387C52.7733 42.4853 52.7599 42.5443 52.8834 42.5639C53.5473 41.7418 54.1945 40.9295 54.5648 39.9077C55.2687 38.0244 55.232 38.2897 54.6448 39.8978C54.1644 41.0999 53.614 42.2724 52.9968 43.4155C52.81 44.0214 52.7266 44.6142 52.7433 45.1841L54.5414 44.755C55.8925 44.4341 57.2269 44.3456 58.6348 44.3391L57.3537 36.3442L56.2228 31.071C55.8325 29.2533 54.478 27.8515 52.7166 27.1604L48.8267 25.9616C48.9935 28.8963 45.7842 30.2228 42.9586 29.8002C40.3297 29.4072 37.3039 27.9628 36.3031 25.5948C36.4265 25.3361 36.4099 25.1003 36.0963 25.0479L32.3599 25.621C29.5042 26.0828 27.6427 26.823 25.7278 28.9487L22.2549 32.8069L22.2516 32.8036ZM30.1714 28.7522C30.1614 28.5032 30.4817 28.4279 30.5918 28.6375C31.5926 30.5896 32.0196 32.9281 31.3224 35.1455C31.2089 32.8954 31.3691 30.8221 30.1747 28.7522H30.1714ZM53.1836 44.8206C52.9634 43.9526 53.3738 43.3762 53.7341 42.7047L55.2353 39.8946C55.0318 41.4667 54.9351 42.9111 54.9951 44.4865L53.1836 44.8238V44.8206Z" fill="#FA4D5E"/>
<path d="M31.259 37.6737C31.0621 37.6442 30.9354 37.8571 30.8186 37.9521C30.6351 38.2174 30.4249 38.486 30.1847 38.7578C30.862 41.8202 31.8027 44.8138 32.8102 47.7844L33.6142 47.0213C34.0546 44.8498 35.4424 44.1587 37.5274 43.579C39.8894 42.9272 44.9969 42.8126 47.5256 42.9632C48.9001 43.0451 50.3346 43.1434 51.6223 43.579C52.2395 43.7886 52.6265 42.8683 52.8066 42.377L54.7049 38.2829C54.0043 38.1093 53.2637 38.2829 52.4997 38.2927L47.6291 38.3681L36.9169 38.3353C35.5091 38.332 34.2514 37.9161 33.0404 37.3069C32.6201 37.094 32.0596 36.8254 31.6359 37.0973C31.6193 37.3429 31.5659 37.7097 31.2656 37.6672L31.259 37.6737Z" fill="#FA4D5E"/>
<path d="M51.976 48.0825C52.1495 46.6643 52.2929 45.2298 52.4063 43.7788C52.5398 43.3465 52.6999 42.9404 52.8834 42.5637L52.8033 42.3868C52.6899 42.6292 52.3963 43.019 52.1628 43.2482C51.8993 43.5103 51.3388 43.1696 51.0219 43.1074C48.8935 42.6914 46.8218 42.6096 44.6633 42.6783L41.1304 42.7897C39.1121 42.8552 37.1705 43.2253 35.3557 44.0998C34.2681 44.6238 33.5976 45.7079 33.4041 46.8674C32.9871 47.0049 32.957 47.2768 32.8903 47.7026C31.9195 44.7516 30.9421 41.8628 30.2682 38.771L30.9654 38.034C30.902 37.962 30.8453 37.962 30.8186 37.9521C30.5684 38.1552 30.2782 38.3321 30.088 38.6825L30.9254 42.1576L32.7168 48.0006C34.4683 47.2047 36.113 47.375 37.811 47.8434L41.5474 48.0301L51.976 48.0825Z" fill="#EA3E50"/>
<path d="M52.8834 42.5605L52.3596 43.4121L52.1828 44.8958L52.0327 46.5661L51.9793 48.0793C52.0527 48.1252 52.1328 48.0662 52.1461 47.9418L52.2829 46.7103L52.403 44.7648C52.453 43.959 52.4664 43.3269 53.0402 42.6915L53.8108 41.4044C53.9443 41.8105 53.644 42.1151 53.4405 42.3968C52.4564 43.7625 52.83 44.4831 52.5798 44.9744C52.5431 45.0464 52.5998 45.2135 52.7499 45.1774L53.1036 43.4448C53.9376 41.8007 55.0518 40.258 55.4088 38.3944C55.9192 35.7414 55.1786 32.7904 53.4572 30.7041C54.478 33.095 55.2253 35.486 54.9351 38.0538C54.4613 39.6848 53.7107 41.1489 52.8867 42.5572L52.8834 42.5605Z" fill="#040914"/>
<path d="M53.1836 44.8204L54.9951 44.483C54.9351 42.9076 55.0352 41.4665 55.2353 39.8911L53.7341 42.7013C53.3738 43.376 52.9635 43.9491 53.1836 44.8171V44.8204Z" fill="#CC4653"/>
<path d="M30.1714 28.7522C31.3657 30.8221 31.2056 32.8986 31.319 35.1454C32.0163 32.9281 31.5892 30.5896 30.5884 28.6375C30.4817 28.4279 30.1581 28.5032 30.1681 28.7522H30.1714Z" fill="#D03948"/>
<rect y="53.7129" width="65" height="51.25" fill="url(#paint0_linear_516_1625)"/>
<defs>
<linearGradient id="paint0_linear_516_1625" x1="32.5" y1="104.963" x2="32.5" y2="53.7129" gradientUnits="userSpaceOnUse">
<stop offset="0.0944153" stop-color="#0B5F65"/>
<stop offset="1" stop-color="#0B5F65" stop-opacity="0"/>
</linearGradient>
</defs>
</svg>
