<svg width="20" height="20" viewBox="0 0 20 20" fill="none" xmlns="http://www.w3.org/2000/svg">
<path fill-rule="evenodd" clip-rule="evenodd" d="M10 2.08334C8.68741 2.08331 7.39541 2.40965 6.24028 3.03298C5.08514 3.65632 4.10312 4.55709 3.38259 5.65423C2.66206 6.75137 2.22563 8.01045 2.11258 9.31816C1.99953 10.6259 2.21341 11.9412 2.73497 13.1457C3.25652 14.3502 4.06939 15.4061 5.10041 16.2185C6.13144 17.0308 7.34826 17.574 8.64138 17.7992C9.9345 18.0245 11.2633 17.9247 12.5083 17.5087C13.7532 17.0928 14.8752 16.3739 15.7733 15.4167H18.4067C17.5011 16.8233 16.2569 17.9801 14.7881 18.7809C13.3193 19.5817 11.6729 20.0009 10 20C4.4775 20 0 15.5225 0 10C0 4.4775 4.4775 1.86862e-06 10 1.86862e-06C11.6731 -0.00102123 13.3196 0.418093 14.7886 1.2189C16.2575 2.0197 17.5019 3.17656 18.4075 4.58334H15.7742C15.0346 3.7929 14.1404 3.16306 13.147 2.73297C12.1537 2.30289 11.0825 2.08176 10 2.08334ZM20 10L16.25 6.25H15V8.95833H7.08333V11.0417H15V13.75H16.25L20 10Z" fill="#FA4D5E"/>
</svg>
