<svg width="30" height="30" viewBox="0 0 30 30" fill="none" xmlns="http://www.w3.org/2000/svg">
<path d="M16.875 23.906C16.875 24.2768 16.765 24.6393 16.559 24.9477C16.3529 25.256 16.0601 25.4963 15.7175 25.6382C15.3749 25.7801 14.9979 25.8173 14.6342 25.7449C14.2705 25.6726 13.9364 25.494 13.6741 25.2318C13.4119 24.9696 13.2333 24.6355 13.161 24.2717C13.0886 23.908 13.1258 23.531 13.2677 23.1884C13.4096 22.8458 13.6499 22.553 13.9583 22.3469C14.2666 22.1409 14.6291 22.031 15 22.031C15.4973 22.031 15.9742 22.2285 16.3258 22.5801C16.6774 22.9318 16.875 23.4087 16.875 23.906ZM25.4297 9.3747L27.2484 7.55713C27.5126 7.29295 27.661 6.93464 27.661 6.56103C27.661 6.18743 27.5126 5.82912 27.2484 5.56494C26.9842 5.30076 26.6259 5.15234 26.2523 5.15234C25.8787 5.15234 25.5204 5.30076 25.2562 5.56494L23.4375 7.38252L21.6199 5.56728C21.3557 5.3031 20.9974 5.15469 20.6238 5.15469C20.2502 5.15469 19.8919 5.3031 19.6277 5.56728C19.3635 5.83146 19.2151 6.18977 19.2151 6.56338C19.2151 6.93698 19.3635 7.29529 19.6277 7.55947L21.4453 9.3747L19.63 11.1923C19.3659 11.4565 19.2175 11.8148 19.2175 12.1884C19.2175 12.562 19.3659 12.9203 19.63 13.1845C19.8942 13.4487 20.2525 13.5971 20.6261 13.5971C20.9997 13.5971 21.3581 13.4487 21.6222 13.1845L23.4375 11.3669L25.255 13.1856C25.3859 13.3165 25.5411 13.4202 25.7121 13.491C25.883 13.5618 26.0661 13.5982 26.2511 13.5982C26.4361 13.5982 26.6193 13.5618 26.7902 13.491C26.9611 13.4202 27.1164 13.3165 27.2472 13.1856C27.378 13.0548 27.4818 12.8995 27.5526 12.7286C27.6234 12.5577 27.6598 12.3745 27.6598 12.1895C27.6598 12.0046 27.6234 11.8214 27.5526 11.6505C27.4818 11.4796 27.378 11.3243 27.2472 11.1935L25.4297 9.3747ZM20.5195 18.1989C18.9169 17.033 16.986 16.4049 15.0041 16.4049C13.0222 16.4049 11.0913 17.033 9.48864 18.1989C9.18717 18.4185 8.98526 18.7489 8.92735 19.1173C8.86945 19.4857 8.96027 19.8621 9.17985 20.1636C9.39943 20.465 9.72978 20.667 10.0982 20.7249C10.4667 20.7828 10.843 20.6919 11.1445 20.4724C12.2661 19.6567 13.6173 19.2174 15.0041 19.2174C16.3909 19.2174 17.742 19.6567 18.8636 20.4724C19.1651 20.6919 19.5415 20.7828 19.9099 20.7249C20.2784 20.667 20.6087 20.465 20.8283 20.1636C21.0479 19.8621 21.1387 19.4857 21.0808 19.1173C21.0229 18.7489 20.821 18.4185 20.5195 18.1989ZM16.4062 6.5622C16.4062 6.18924 16.2581 5.83156 15.9943 5.56784C15.7306 5.30411 15.3729 5.15595 15 5.15595C10.231 5.15841 5.60985 6.81088 1.92067 9.83291C1.77794 9.9501 1.65968 10.0943 1.57266 10.2571C1.48563 10.42 1.43155 10.5985 1.41348 10.7823C1.39542 10.9661 1.41373 11.1516 1.46738 11.3283C1.52102 11.505 1.60895 11.6695 1.72614 11.8122C1.84333 11.9549 1.98749 12.0732 2.15038 12.1602C2.31327 12.2472 2.49171 12.3013 2.6755 12.3194C2.8593 12.3375 3.04485 12.3191 3.22157 12.2655C3.39828 12.2119 3.5627 12.1239 3.70544 12.0067C6.89138 9.39745 10.8819 7.97067 15 7.96845C15.3729 7.96845 15.7306 7.8203 15.9943 7.55657C16.2581 7.29285 16.4062 6.93517 16.4062 6.5622ZM16.4062 12.1872C16.4062 11.8142 16.2581 11.4566 15.9943 11.1928C15.7306 10.9291 15.3729 10.781 15 10.781C11.6181 10.7684 8.33331 11.9112 5.68942 14.02C5.40441 14.254 5.22268 14.5905 5.18338 14.9571C5.14408 15.3237 5.25036 15.6911 5.47931 15.9802C5.70826 16.2692 6.04158 16.4568 6.40747 16.5024C6.77336 16.5481 7.14255 16.4482 7.43552 16.2243C9.58364 14.5112 12.2524 13.583 15 13.5935C15.3729 13.5935 15.7306 13.4453 15.9943 13.1816C16.2581 12.9179 16.4062 12.5602 16.4062 12.1872Z" fill="#0F474A"/>
</svg>
