<svg width="235" height="39" viewBox="0 0 235 39" fill="none" xmlns="http://www.w3.org/2000/svg">
<path d="M34.0065 38.4042H23.9551C23.9202 38.4042 23.8816 38.3879 23.8374 38.3535C23.7933 38.3191 23.7731 38.2847 23.7731 38.2503C23.7381 37.4138 23.3005 36.2114 22.4583 34.6487C21.6161 33.0842 20.4741 31.2174 19.0343 29.0463L17.0299 26.0712C10.6067 16.6191 6.66595 10.9261 5.20772 8.99399L5.13048 8.96864C5.06061 8.96864 5.02567 9.00304 5.02567 9.07185C4.97418 10.5078 4.94843 13.807 4.94843 18.9694C4.94843 21.2763 4.95211 23.3967 4.96131 25.3288C4.9705 27.2609 4.98337 28.4994 4.99992 29.0463C5.03486 33.4573 5.55526 36.5247 6.56297 38.2503L6.58872 38.301C6.58872 38.3354 6.57952 38.3608 6.56297 38.3771C6.54458 38.3934 5.45964 38.4024 3.30815 38.4024C1.15666 38.4024 0.0441332 38.3934 0.0275832 38.3771C0.00919441 38.3608 0.00183888 38.3354 0.00183888 38.301L0.0275832 38.2503C1.03345 36.5247 1.55569 33.4555 1.59063 29.0463C1.62557 27.6447 1.64212 24.4995 1.64212 19.6104C1.64212 14.7214 1.62373 11.5852 1.59063 10.2525C1.55386 5.84147 1.03345 2.77224 0.0257444 1.04659L0 0.995893C0 0.927084 0.0349388 0.89268 0.104816 0.89268C8.87077 0.89268 13.2767 0.908977 13.319 0.943381C13.3613 0.977785 13.3834 1.01219 13.3834 1.04659C13.4533 2.51693 15.0329 5.58434 18.1222 10.2507C19.095 11.721 21.3586 15.0455 24.9187 20.2243C27.6274 24.1898 29.0065 26.1726 29.058 26.1726C29.093 26.1726 29.1224 26.1599 29.15 26.1346C29.1757 26.1092 29.1886 23.0273 29.1886 16.8907C29.1886 13.3869 29.1702 11.1723 29.1371 10.2507C29.0323 5.60064 28.5027 2.52417 27.5483 1.01943C27.5483 0.985028 27.5575 0.956056 27.574 0.928895C27.5906 0.903544 28.6755 0.890869 30.8289 0.890869C32.9822 0.890869 34.0653 0.899923 34.0837 0.91622C34.1002 0.932517 34.1094 0.959678 34.1094 0.992271L34.0837 1.04297C33.076 2.77043 32.5556 5.83785 32.5206 10.247C32.5023 10.8971 32.4949 14.0243 32.4949 19.6322C32.4949 25.2401 32.5041 28.3926 32.5206 29.0426C32.6255 33.6746 33.1459 36.7438 34.0837 38.2467L34.1094 38.2974C34.1094 38.3662 34.0745 38.4006 34.0046 38.4006L34.0065 38.4042Z" fill="white"/>
<path d="M46.9228 38.4296C45.1685 38.4296 43.5282 37.9263 42.0019 36.9177C40.4738 35.9091 39.2841 34.3536 38.4345 32.2513C37.9656 31.02 37.6695 29.8322 37.55 28.6878C37.4286 27.5434 37.368 26.4406 37.368 25.3795L37.3937 23.7136L37.368 22.5348C37.3165 19.3389 36.7777 17.0483 35.7534 15.663C35.7534 15.5779 35.7792 15.5182 35.8307 15.4838C37.5666 15.0908 39.6371 14.3213 42.0406 13.1769C44.444 12.0325 46.1321 11.0058 47.1048 10.1004L47.1563 10.0751C47.2262 10.0751 47.2611 10.1095 47.2611 10.1783C47.2611 15.3244 47.2703 19.4765 47.2869 22.6399V26.9984L47.2611 28.6135C47.2611 29.7923 47.3034 30.6995 47.3917 31.3315C47.583 33.5714 48.3718 34.6904 49.762 34.6904C50.9426 34.6904 51.6965 33.5279 52.0275 31.2029C52.114 30.571 52.1581 29.8612 52.1581 29.0753L52.1838 25.0753L52.1323 22.6145C52.011 18.7848 51.4722 16.1447 50.5178 14.6925L50.4921 14.6164C50.4921 14.6001 50.5178 14.5657 50.5693 14.5132C52.3218 14.1203 54.4015 13.3507 56.8049 12.2063C59.2084 11.0619 60.8891 10.0352 61.8435 9.12984L61.9207 9.10449C61.9557 9.10449 61.9814 9.11355 61.9979 9.12984C62.0145 9.14614 62.0237 14.4625 62.0237 25.079L61.9979 26.7974C61.9979 32.7801 62.5349 36.6008 63.6125 38.2594L63.6382 38.3101C63.6382 38.3445 63.629 38.3699 63.6125 38.3862C63.5941 38.4025 62.91 38.4115 61.5548 38.4115C61.016 38.4115 60.4386 38.3047 59.8226 38.091C59.2065 37.8774 58.5684 37.6329 57.9083 37.3595C56.6762 36.7945 55.5472 36.4541 54.5229 36.3346C53.8462 36.3346 53.3423 36.398 53.0132 36.5265C52.684 36.6551 52.3622 36.8126 52.0496 37.001C51.6156 37.2744 51.0161 37.5569 50.253 37.8466C49.1423 38.2395 48.0316 38.4369 46.921 38.4369L46.9228 38.4296Z" fill="white"/>
<path d="M76.6851 38.6342C74.9841 38.6342 73.3696 38.1181 71.8415 37.0824C70.3134 36.0484 69.0721 34.6252 68.1177 32.8126C67.1634 31.0019 66.6852 28.9159 66.6852 26.5565V19.8639C66.6852 16.668 66.6724 15.0528 66.6466 15.0184C66.6209 14.984 66.1391 14.9677 65.2013 14.9677C64.2634 14.9677 63.7816 14.955 63.7559 14.9296C63.7302 14.9043 63.7173 14.515 63.7173 13.7635C63.7173 13.012 63.7302 12.6264 63.7559 12.6101C63.7816 12.5938 63.8037 12.5847 63.8203 12.5847C67.0843 12.3964 69.7212 11.4313 71.7366 9.6875C73.7502 7.94374 75.3041 5.43042 76.3982 2.14933C76.4148 2.11493 76.4405 2.09863 76.4755 2.09863C76.492 2.09863 76.5141 2.11131 76.5398 2.13666C76.5656 2.16201 76.5784 3.89671 76.5784 7.34076C76.5784 10.7848 76.5876 12.5195 76.6042 12.5467C76.6207 12.572 77.4206 12.5847 79.0002 12.5847C80.5798 12.5847 81.3779 12.5938 81.3963 12.6101C81.4129 12.6264 81.422 13.012 81.422 13.7635C81.422 14.515 81.4129 14.9043 81.3963 14.9296C81.3779 14.955 80.5854 14.9677 79.0131 14.9677C77.4409 14.9677 76.6428 14.9767 76.617 14.993C76.5913 15.0093 76.5784 19.1632 76.5784 27.4546C76.5784 28.5664 76.6262 29.604 76.7219 30.5691C76.8175 31.5342 77.0565 32.3165 77.4372 32.9158C77.8197 33.5152 78.4523 33.814 79.3386 33.814C79.9289 33.814 80.51 33.6257 81.0837 33.249C81.6574 32.8724 82.1981 32.4125 82.7111 31.8638C83.2223 31.3169 83.6967 30.7701 84.1307 30.2233L84.208 30.1726C84.2429 30.1726 84.6861 30.7629 85.5356 31.9417L85.5099 31.9924C85.041 32.8307 84.5555 33.6075 84.0516 34.3264C82.9925 35.813 81.8248 36.9031 80.5486 37.5948C79.2724 38.2865 77.9833 38.6342 76.6814 38.6342H76.6851Z" fill="white"/>
<path d="M92.5951 38.4043C88.237 38.4043 86.0505 38.3952 86.034 38.3789C86.0156 38.3626 86.0082 38.3373 86.0082 38.3029L86.034 38.2522C87.0398 36.5265 87.5621 33.4573 87.597 29.0481C87.6485 27.2699 87.6743 25.7055 87.6743 24.3564C87.6743 21.5697 87.5474 19.4855 87.2973 18.1003C87.0454 16.7151 86.6243 15.6304 86.034 14.8446L86.0082 14.7939C86.0082 14.725 86.034 14.6906 86.0855 14.6906C87.8379 14.2977 89.9177 13.5245 92.3211 12.3693C94.7245 11.2158 96.4053 10.1945 97.3597 9.30546L97.4369 9.28011C97.4718 9.28011 97.4976 9.28916 97.5141 9.30546C97.5307 9.32176 97.5399 9.93741 97.5399 11.1524C97.5399 12.3674 97.5527 12.9813 97.5785 12.9994C97.6042 13.0157 97.6263 13.0247 97.6428 13.0247C97.6778 13.0247 97.8948 12.7006 98.2938 12.0506C99.2316 10.4444 100.429 8.60651 101.887 6.53863C103.345 4.47075 104.969 2.7777 106.756 1.46128C108.18 0.487093 109.612 0 111.052 0C112.615 0 113.921 0.512443 114.971 1.53914C116.021 2.56403 116.547 3.76093 116.547 5.12805C116.547 5.91392 116.339 6.70884 115.921 7.51281C115.401 8.41819 114.636 9.13706 113.63 9.6658C112.622 10.1964 111.6 10.4607 110.557 10.4607C109.515 10.4607 108.527 10.1275 107.692 9.46118L107.641 9.35797C107.641 9.30727 107.676 9.26381 107.746 9.22941C108.492 9.00669 109.117 8.61375 109.621 8.05061C110.195 7.38425 110.506 6.69254 110.559 5.97367C110.559 5.59704 110.438 5.27291 110.195 4.99949C109.952 4.72607 109.614 4.58845 109.18 4.58845C108.937 4.58845 108.667 4.63915 108.373 4.74236C106.863 5.39242 105.166 7.0891 103.283 9.83239C101.4 12.5757 99.4854 15.6739 97.5417 19.127V22.7159C97.5417 25.6222 97.5583 27.7335 97.5932 29.0499C97.6281 33.4609 98.1485 36.5283 99.1562 38.254L99.182 38.3047C99.182 38.3391 99.1728 38.3644 99.1562 38.3807C99.1379 38.397 96.9514 38.4061 92.5951 38.4061V38.4043ZM111.786 38.4043C107.428 38.4043 105.241 38.3952 105.225 38.3789C105.206 38.3626 105.199 38.3373 105.199 38.3029L105.225 38.2522C106.23 36.5265 106.753 33.4573 106.788 29.0481C106.839 27.4927 106.865 26.1002 106.865 24.8689C106.865 22.5276 106.743 20.6553 106.501 19.2537C106.258 17.8522 105.824 16.6988 105.199 15.7916C105.199 15.7572 105.202 15.7318 105.212 15.7155C105.221 15.6992 105.241 15.6811 105.276 15.6648C107.012 15.2719 109.083 14.4987 111.486 13.3434C113.889 12.19 115.577 11.1687 116.55 10.2796C116.567 10.2633 116.593 10.2543 116.627 10.2543C116.644 10.2543 116.666 10.2633 116.692 10.2796C116.718 10.2959 116.73 12.0071 116.73 15.4077C116.73 22.964 116.747 27.5108 116.782 29.0481C116.817 33.4591 117.337 36.5265 118.345 38.2522L118.371 38.3029C118.371 38.3373 118.362 38.3626 118.345 38.3789C118.327 38.3952 116.14 38.4043 111.784 38.4043H111.786Z" fill="white"/>
<path d="M133.606 38.9945C131.419 38.9945 129.343 38.665 127.383 38.0077C125.421 37.3504 123.825 36.3635 122.593 35.0471C121.307 33.6619 120.656 31.9616 120.64 29.9444C120.64 28.8163 120.892 27.8457 121.396 27.0345C121.9 26.2233 122.558 25.5986 123.374 25.1622C124.191 24.7258 125.066 24.5085 126.004 24.5085C126.942 24.5085 127.88 24.7385 128.816 25.2002C129.579 25.5932 130.187 26.1328 130.638 26.8154C131.088 27.4999 131.315 28.302 131.315 29.2255C131.315 29.6529 131.254 30.1056 131.133 30.5836C131.114 30.6687 131.063 30.7122 130.976 30.7122L130.871 30.6615C130.68 30.4731 130.412 30.3029 130.064 30.149C129.717 29.9951 129.343 29.919 128.944 29.919L128.606 29.9444C127.738 30.0295 127.173 30.4749 126.914 31.2771C126.863 31.4817 126.837 31.6882 126.837 31.8928C126.837 32.7981 127.319 33.6148 128.282 34.3409C129.246 35.067 130.404 35.431 131.758 35.431C133.442 35.431 134.987 34.799 136.394 33.5333C137.556 32.5084 138.139 31.2934 138.139 29.8919C138.139 28.8833 137.74 27.8367 136.942 26.7502C136.144 25.6656 134.823 24.6172 132.984 23.6086C130.642 22.361 128.808 21.3433 127.49 20.5575C123.931 18.4208 121.64 16.2153 120.616 13.9428C120.077 12.7803 119.809 11.6268 119.809 10.4806C119.809 8.70245 120.386 7.03656 121.541 5.48112C122.696 3.92569 124.314 2.66902 126.397 1.71113C128.481 0.753246 130.903 0.275208 133.663 0.275208C134.305 0.275208 134.956 0.300558 135.616 0.351259C138.15 0.590279 140.195 1.12445 141.748 1.95378C143.302 2.7831 144.43 3.76996 145.134 4.91617C145.836 6.06237 146.189 7.19772 146.189 8.32582C146.189 9.67664 145.768 10.8609 144.926 11.8767C144.084 12.8943 142.96 13.4792 141.554 13.6331L140.928 13.6585C139.4 13.6585 138.117 13.2348 137.074 12.3891C136.033 11.5435 135.511 10.41 135.511 8.99217C135.511 8.54854 135.572 8.0868 135.693 7.60695C135.71 7.53814 135.754 7.50373 135.824 7.50373C135.858 7.50373 135.893 7.52003 135.928 7.55443C136.155 7.75905 136.48 7.93107 136.905 8.06688C137.33 8.2045 137.769 8.27149 138.22 8.27149C138.757 8.27149 139.196 8.08317 139.534 7.70654C139.873 7.3299 140.042 6.88627 140.042 6.37382C140.042 5.94649 139.889 5.51553 139.586 5.07914C139.282 4.64274 138.791 4.28421 138.115 4.00174C137.438 3.71926 136.535 3.57078 135.406 3.55267C134.053 3.55267 132.971 3.74461 132.164 4.1303C131.357 4.51418 130.767 5.01938 130.393 5.64228C130.02 6.26699 129.834 6.92791 129.834 7.62868C129.834 7.9365 129.869 8.25339 129.939 8.57751C130.2 9.79072 130.75 10.7269 131.592 11.3842C132.434 12.0433 133.619 12.7386 135.147 13.4738C136.309 14.055 137.69 14.7993 139.286 15.7046C143.609 18.1836 146.498 20.8508 147.956 23.7045C148.53 24.9014 148.815 26.1491 148.815 27.4474C148.815 29.7036 147.964 31.862 146.263 33.9208C144.562 35.9814 142.054 37.4626 138.738 38.3698C137.054 38.7809 135.344 38.9855 133.608 38.9855L133.606 38.9945Z" fill="white"/>
<path d="M163.732 38.6614C163.212 38.6614 162.691 38.636 162.169 38.5853C159.461 38.2268 157.201 37.3504 155.386 35.9579C153.571 34.5655 152.208 32.8507 151.298 30.8172C150.386 28.7837 149.931 26.6543 149.931 24.4325C149.931 22.6036 150.239 20.8128 150.856 19.06C151.472 17.3072 152.407 15.7228 153.655 14.3032C155.078 12.7133 156.715 11.5381 158.563 10.7776C160.411 10.0171 162.3 9.63684 164.227 9.63684C165.407 9.63684 166.57 9.77446 167.715 10.0479C170.613 10.7649 172.993 12.2787 174.85 14.5856L174.876 14.6363V20.534C174.876 20.6028 174.841 20.6372 174.771 20.6372C174.736 20.6372 174.71 20.6209 174.694 20.5865C173.929 18.3991 172.815 16.7187 171.347 15.5471C169.88 14.3774 168.341 13.7907 166.726 13.7907C165.597 13.7907 164.508 14.1076 163.458 14.7395C162.408 15.3715 161.509 16.3457 160.762 17.6621C159.722 19.5598 159.199 21.5932 159.199 23.7643C159.199 25.0626 159.411 26.3193 159.838 27.5343C160.262 28.7475 160.945 29.8249 161.882 30.7647C162.82 31.7045 164.034 32.4143 165.527 32.8923C166.169 33.097 166.845 33.2002 167.557 33.2002C170.178 33.2002 172.721 31.7045 175.187 28.7131L175.238 28.6878C175.273 28.6878 175.707 29.2527 176.54 30.3808C176.557 30.3971 176.566 30.4315 176.566 30.484C175.472 32.398 174.227 33.9589 172.829 35.163C171.432 36.3672 169.957 37.2526 168.403 37.8176C166.849 38.3825 165.292 38.6632 163.729 38.6632L163.732 38.6614Z" fill="white"/>
<path d="M190.291 38.9946C188.798 38.9946 187.318 38.8316 185.852 38.5075C184.385 38.1834 183.066 37.7035 181.895 37.0716C180.724 36.4396 179.782 35.6538 179.07 34.7122C178.359 33.7724 178.002 32.6787 178.002 31.4311C178.054 29.5841 178.784 28.0033 180.188 26.6869C181.595 25.3705 183.37 24.3583 185.514 23.6485C187.658 22.9386 189.806 22.5837 191.959 22.5837C192.741 22.5837 193.513 22.6344 194.276 22.7377C194.346 22.7377 194.381 22.7032 194.381 22.6344V22.4298C194.381 18.4299 193.434 15.7463 191.544 14.3792C190.571 13.6966 189.572 13.3543 188.55 13.3543C187.63 13.3543 186.952 13.6151 186.52 14.1366C186.086 14.6581 185.869 15.2013 185.869 15.7644C185.869 16.2425 186.003 16.6626 186.271 17.0211C186.54 17.3796 186.919 17.5589 187.404 17.5589C187.733 17.5589 188.046 17.5082 188.342 17.405C188.636 17.3018 188.862 17.175 189.019 17.0211L189.096 16.9704C189.147 16.9704 189.182 17.0048 189.201 17.0736C189.287 17.4503 189.331 17.7997 189.331 18.1257C189.331 19.2375 188.949 20.1084 188.186 20.7404C187.421 21.3723 186.536 21.6892 185.53 21.6892L185.061 21.6639C183.811 21.5281 182.825 21.0192 182.106 20.1392C181.386 19.2592 181.025 18.2379 181.025 17.0754C181.025 16.1701 181.277 15.2556 181.781 14.3321C182.285 13.4087 183.079 12.5884 184.164 11.8713C185.249 11.1543 186.669 10.6147 188.421 10.2561C189.515 10.0515 190.573 9.9483 191.599 9.9483C193.925 9.9483 196.012 10.3847 197.86 11.2557C199.708 12.1266 201.192 13.2475 202.312 14.6146C203.432 15.9817 204.07 17.4358 204.226 18.9731C204.278 19.5036 204.304 20.2642 204.304 21.2546L204.278 23.6141C204.259 24.9649 204.252 26.7774 204.252 29.0499C204.304 31.221 204.447 33.0879 204.682 34.6524C204.916 36.2169 205.302 37.4174 205.841 38.254C205.841 38.3047 205.832 38.3445 205.815 38.3699C205.797 38.3952 205.12 38.4079 203.785 38.4079C203.143 38.4079 202.566 38.3482 202.053 38.2286C201.54 38.1091 201.041 37.9679 200.556 37.8049C200.07 37.642 199.57 37.5025 199.059 37.3812C198.546 37.2617 197.978 37.2019 197.354 37.2019C196.902 37.2019 196.49 37.2708 196.117 37.4066C195.744 37.5442 195.367 37.7053 194.984 37.8937C194.464 38.1671 193.848 38.4188 193.136 38.6506C192.424 38.8805 191.477 38.9964 190.299 38.9964L190.291 38.9946ZM192.218 36.2767C192.844 36.2767 193.52 36.1915 194.249 36.0195C194.3 36.0195 194.326 35.9851 194.326 35.9163L194.377 24.7114C194.377 24.677 194.364 24.6426 194.339 24.6082C194.313 24.5738 194.013 24.5575 193.441 24.5575C192.088 24.5575 190.942 24.8816 190.004 25.5316C189.067 26.1817 188.359 27.011 187.882 28.0196C187.404 29.0282 187.167 30.0549 187.167 31.0961C187.167 31.9852 187.349 32.8235 187.713 33.6094C188.077 34.3953 188.633 35.0363 189.379 35.5324C190.126 36.0286 191.071 36.2767 192.217 36.2767H192.218Z" fill="white"/>
<path d="M228.439 38.4043C224.081 38.4043 221.894 38.3916 221.878 38.3662C221.859 38.3409 221.852 38.3029 221.852 38.2504C222.356 37.4645 222.72 36.378 222.946 34.9946C223.172 33.6094 223.314 32.0377 223.376 30.2776C223.437 28.5176 223.468 26.705 223.468 24.8417L223.494 19.8676C223.494 18.8771 223.443 17.9192 223.338 16.9957C223.233 16.0722 223.003 15.3117 222.648 14.7142C222.291 14.1166 221.732 13.816 220.969 13.816C219.859 13.816 219.051 14.4734 218.548 15.7898C218.548 22.5584 218.564 26.9694 218.599 29.0209C218.634 33.4482 219.154 36.5247 220.162 38.2522L220.188 38.3029C220.188 38.3373 220.179 38.3626 220.162 38.3789C220.144 38.3952 215.804 38.4043 207.143 38.4043C207.073 38.4043 207.038 38.3789 207.038 38.3282V38.2522C207.575 37.4156 207.963 36.2133 208.196 34.6506C208.43 33.0861 208.573 31.2101 208.627 29.0228C208.662 27.4166 208.678 25.9879 208.678 24.7403C208.678 21.7327 208.548 19.5217 208.288 18.113C208.027 16.7024 207.612 15.6123 207.038 14.8446L207.012 14.7939C207.012 14.725 207.047 14.6906 207.117 14.6906C208.853 14.2977 210.924 13.5245 213.327 12.3693C215.73 11.2158 217.411 10.1855 218.365 9.28011L218.443 9.25476C218.459 9.25476 218.481 9.26381 218.507 9.28011C218.533 9.29641 218.546 9.66942 218.546 10.3955C218.546 11.1216 218.559 11.4947 218.584 11.511C218.61 11.5273 218.632 11.5363 218.649 11.5363L218.7 11.511C220.35 10.5531 222.051 10.075 223.803 10.075C225.434 10.075 226.981 10.5205 228.439 11.4077C229.897 12.2968 231.081 13.6549 231.993 15.4838C232.906 17.3126 233.36 19.6467 233.36 22.4841C233.36 25.3216 233.385 27.7027 233.437 29.6257C233.488 31.5488 233.628 33.2581 233.854 34.7538C234.081 36.2495 234.454 37.4156 234.974 38.254L235 38.3047C235 38.3391 234.991 38.3644 234.974 38.3807C234.956 38.397 232.779 38.4061 228.439 38.4061V38.4043Z" fill="white"/>
</svg>
