<svg width="355" height="337" viewBox="0 0 355 337" fill="none" xmlns="http://www.w3.org/2000/svg">
<g filter="url(#filter0_d_197_733)">
<g clip-path="url(#clip0_197_733)">
<rect x="30" y="30" width="295" height="277" rx="16" fill="#0F474A"/>
<path d="M33.7662 93.832C24.1713 96.446 14.5997 99.0455 5.00483 101.66C0.356389 102.922 2.49695 110.11 7.14539 108.848C16.7402 106.234 26.3119 103.634 35.9067 101.02C40.5783 99.7435 38.4146 92.5697 33.7662 93.832Z" fill="#13A4AB"/>
<path d="M37.5768 63.0323C27.0924 58.6946 16.5746 54.3377 6.09029 50C1.64474 48.1686 -0.285294 55.4089 4.10049 57.2281C14.5848 61.5658 25.1026 65.9227 35.587 70.2604C40.0396 72.1182 41.9696 64.8778 37.5768 63.0323Z" fill="#13A4AB"/>
<path d="M57.5901 43.2926C48.3329 34.7843 39.4987 25.8519 31.0754 16.5552C27.8318 12.9893 22.5599 18.3002 25.8106 21.8925C34.2409 31.2156 43.0944 40.1145 52.3253 48.6299C55.848 51.8668 61.1199 46.5559 57.5901 43.2926Z" fill="#13A4AB"/>
<path d="M155.206 403.072L301.655 363.775C313.542 360.59 320.68 348.225 317.469 336.345L236.6 34.9611C233.415 23.0743 221.05 15.9354 209.171 19.1469L62.7222 58.4441C50.8354 61.6292 43.6965 73.9941 46.9079 85.8738L127.796 387.224C130.962 399.144 143.319 406.257 155.206 403.072Z" fill="#13A4AB"/>
<path d="M226.405 43.9369C224.131 35.4501 215.309 30.3564 206.822 32.6304L71.4956 68.9475C63.0088 71.2215 57.9152 80.044 60.1892 88.5308L64.1228 103.211L230.353 58.6701L226.405 43.9369Z" fill="#0B5F65"/>
<path d="M299.97 318.067L133.74 362.608L121.317 316.247L110.938 277.616L86.1391 185.277L75.7365 146.454L64.1211 103.21L230.351 58.6691L243.033 105.893L254.177 147.483L275.298 226.203L286.532 268.023L299.97 318.067Z" fill="#108188"/>
<path d="M242.491 245.779C262.458 211.195 250.608 166.972 216.024 147.005C181.44 127.038 137.217 138.887 117.25 173.471C97.2828 208.056 109.132 252.278 143.716 272.246C178.301 292.213 222.523 280.363 242.491 245.779Z" fill="#75DEE3"/>
<path opacity="0.69" d="M275.301 226.203C275.131 227.152 274.955 228.075 274.733 229.039C273.635 234.22 272.145 239.308 270.316 244.29C270.113 244.796 269.91 245.303 269.733 245.802C269.701 245.896 269.67 245.989 269.658 246.048C269.193 247.162 268.702 248.282 268.178 249.383C267.098 251.678 265.958 253.961 264.718 256.186C263.478 258.41 262.198 260.59 260.798 262.745C260.121 263.802 259.391 264.873 258.68 265.911C258.415 266.293 256.725 268.525 256.59 268.759C253.536 272.543 250.328 276.172 246.831 279.566C244.994 281.358 243.077 283.058 241.119 284.712C240.727 285.043 239.284 286.193 238.893 286.524C238.749 286.619 238.585 286.747 238.559 286.754C237.8 287.297 237.068 287.832 236.309 288.374C231.861 291.487 227.182 294.266 222.344 296.664C221.142 297.24 219.967 297.809 218.759 298.359C218.279 298.573 216.471 299.311 216.327 299.406C213.894 300.341 211.44 301.196 208.938 301.98C203.538 303.652 198.077 304.777 192.506 305.704C192.48 305.711 192.236 305.749 191.965 305.793C191.529 305.853 190.789 305.938 190.617 305.928C189.295 306.056 187.974 306.184 186.664 306.253C183.861 306.439 181.049 306.486 178.216 306.454C175.806 306.422 173.375 306.311 170.975 306.106C169.736 306.015 168.509 305.863 167.282 305.712C167.069 305.656 164.694 305.332 164.276 305.246C159.237 304.364 154.246 303.131 149.381 301.525C148.169 301.115 146.958 300.706 145.765 300.262C145.326 300.098 143.847 299.534 143.474 299.407C141.181 298.44 138.919 297.379 136.703 296.278C131.997 293.895 127.484 291.178 123.17 288.153C122.581 287.746 121.985 287.312 121.388 286.879C121.355 286.86 121.214 286.756 121.073 286.652C120.744 286.373 119.154 285.076 118.798 284.804C116.691 283.053 114.648 281.227 112.696 279.321C112.117 278.741 111.545 278.188 110.966 277.609L121.346 316.241C155.82 334.941 198.229 336.233 234.38 318.496C256.681 307.577 274.777 289.508 286.587 268.009L275.301 226.203ZM89.2197 175.469C89.3966 174.97 90.0888 173.231 90.1133 173.111C90.5848 172.025 91.0563 170.938 91.5612 169.87C93.7842 165.094 96.3273 160.458 99.2186 156.067C99.9222 155.003 100.626 153.939 101.37 152.92C101.615 152.572 102.696 151.124 103.046 150.635C103.195 150.454 103.318 150.279 103.363 150.239C103.837 149.688 104.278 149.118 104.745 148.541C105.685 147.413 106.633 146.312 107.614 145.23C111.162 141.285 115.005 137.6 119.091 134.188C119.437 133.898 120.959 132.727 121.116 132.573C121.089 132.58 121.089 132.58 121.063 132.587C121.867 132.004 122.638 131.402 123.449 130.845C125.732 129.245 128.07 127.743 130.482 126.306C132.749 124.964 135.071 123.72 137.415 122.555C138.439 122.055 139.463 121.555 140.494 121.081C140.947 120.874 143.359 119.861 143.386 119.854C148.384 117.95 153.513 116.321 158.754 115.114C161.392 114.521 164.051 114.006 166.711 113.604C166.903 113.581 167.688 113.455 168.124 113.395C168.342 113.365 168.56 113.334 168.593 113.354C170.106 113.202 171.627 113.078 173.128 112.986C178.543 112.637 183.958 112.711 189.367 113.183C190.408 113.271 191.429 113.393 192.477 113.508C192.742 113.55 194.507 113.811 194.978 113.883C197.673 114.347 200.397 114.917 203.062 115.587C205.541 116.194 207.996 116.92 210.438 117.707C211.649 118.116 212.861 118.526 214.053 118.969C214.56 119.173 215.059 119.35 215.592 119.546C215.812 119.628 215.965 119.672 216.091 119.723C216.125 119.742 216.151 119.735 216.184 119.754C221.031 121.817 225.737 124.2 230.251 126.918C232.437 128.224 234.565 129.632 236.648 131.079C237.345 131.57 238.015 132.069 238.685 132.567C238.8 132.678 241.06 134.473 241.423 134.771C245.498 138.171 249.286 141.874 252.828 145.812C253.306 146.333 253.766 146.888 254.225 147.443L243.062 105.886C227.279 96.2166 209.211 90.0407 190.033 88.2586C144.61 84.0453 99.1538 107.751 75.7582 146.421L86.1942 185.263C86.4181 184.412 86.6492 183.588 86.8995 182.73C87.554 180.323 88.3402 177.88 89.2197 175.469Z" fill="#0B5F65"/>
<path d="M216.898 243.236L166.241 256.81C165.713 256.951 165.145 256.623 165.004 256.096L151.438 205.465C151.296 204.938 151.624 204.37 152.151 204.229L202.809 190.655C203.336 190.514 203.904 190.842 204.045 191.369L217.611 242C217.76 242.553 217.425 243.095 216.898 243.236Z" fill="white"/>
<path d="M164.006 205.657C162.995 198.301 159.194 191.495 158.645 184.071C158.01 175.795 163.94 169.884 171.688 168.119C175.465 167.248 179.742 167.288 182.702 170.111C185.54 172.797 186.788 176.926 188.033 180.519C191.036 189.092 193.738 197.804 196.248 206.538C197.268 210.135 202.915 208.65 201.888 205.027C198.758 194.085 195.862 182.432 191.009 172.122C187 163.592 179.249 160.386 170.183 162.505C162.021 164.409 154.643 170.398 153.085 178.922C151.343 188.655 157.089 197.765 158.399 207.188C158.904 210.866 164.537 209.328 164.006 205.657Z" fill="white"/>
<path d="M190.243 214.701C191.443 219.181 188.773 223.767 184.319 224.96C179.839 226.161 175.253 223.491 174.06 219.037C172.859 214.556 175.529 209.971 179.983 208.777C184.464 207.577 189.049 210.247 190.243 214.701Z" fill="#17B8BE"/>
<path d="M182.871 219.558L176.868 241.957L199.271 235.955L182.871 219.558Z" fill="#17B8BE"/>
<path d="M215.83 48.436L192.61 54.6578C190.133 55.3217 187.586 53.829 186.929 51.3778C186.265 48.9003 187.758 46.3534 190.209 45.6966L213.429 39.4749C215.907 38.811 218.454 40.3037 219.11 42.7549C219.767 45.206 218.281 47.7793 215.83 48.436Z" fill="#13A4AB"/>
<path d="M69.7214 86.2579C73.3322 85.2904 71.8473 79.643 68.2101 80.6176C64.5992 81.5851 66.1106 87.2254 69.7214 86.2579Z" fill="#13A4AB"/>
<path d="M82.6567 81.9167C86.2675 80.9491 84.7826 75.3018 81.1454 76.2764C77.5082 77.251 79.0195 82.8912 82.6567 81.9167Z" fill="#13A4AB"/>
<path d="M97.1955 77.146C100.806 76.1784 99.3214 70.5311 95.6842 71.5057C92.0734 72.4732 93.5847 78.1135 97.1955 77.146Z" fill="#13A4AB"/>
</g>
</g>
<defs>
<filter id="filter0_d_197_733" x="0" y="0" width="355" height="337" filterUnits="userSpaceOnUse" color-interpolation-filters="sRGB">
<feFlood flood-opacity="0" result="BackgroundImageFix"/>
<feColorMatrix in="SourceAlpha" type="matrix" values="0 0 0 0 0 0 0 0 0 0 0 0 0 0 0 0 0 0 127 0" result="hardAlpha"/>
<feOffset/>
<feGaussianBlur stdDeviation="15"/>
<feComposite in2="hardAlpha" operator="out"/>
<feColorMatrix type="matrix" values="0 0 0 0 0.0745098 0 0 0 0 0.643137 0 0 0 0 0.670588 0 0 0 0.4 0"/>
<feBlend mode="normal" in2="BackgroundImageFix" result="effect1_dropShadow_197_733"/>
<feBlend mode="normal" in="SourceGraphic" in2="effect1_dropShadow_197_733" result="shape"/>
</filter>
<clipPath id="clip0_197_733">
<rect x="30" y="30" width="295" height="277" rx="16" fill="white"/>
</clipPath>
</defs>
</svg>
