<svg width="80" height="80" viewBox="0 0 80 80" fill="none" xmlns="http://www.w3.org/2000/svg">
<g clip-path="url(#clip0_870_1785)">
<path d="M80 40C80 62.0916 62.0935 80 40 80C17.9065 80 0 62.0916 0 40C0 17.9084 17.9065 0 40 0C62.0935 0 80 17.9084 80 40ZM73.8636 39.9738C73.8636 21.2479 58.6844 6.0671 39.9607 6.0671C21.2369 6.0671 6.05332 21.2479 6.05332 39.9738C6.05332 58.6996 21.2325 73.8804 39.9563 73.8804C58.6801 73.8804 73.8593 58.6996 73.8593 39.9738H73.8636Z" fill="#FDFDFD"/>
<path d="M39.9563 6.06714C21.2325 6.06714 6.05334 21.248 6.05334 39.9694C6.05334 58.6909 21.2325 73.8761 39.9563 73.8761C58.6801 73.8761 73.8593 58.6953 73.8593 39.9694C73.8593 21.2436 58.6801 6.06714 39.9563 6.06714ZM21.7701 44.087C21.6783 45.3415 20.8523 46.5611 19.4187 47.3042C16.8838 48.6155 13.5577 48.4931 11.2806 46.8845C10.1005 46.0497 9.4231 44.7427 9.48866 43.4707C9.56296 42.0807 10.2448 40.8437 11.5909 40.1487C14.2395 38.7805 17.5481 38.7674 20.0088 40.4328C21.3068 41.3114 21.875 42.6227 21.7701 44.087ZM69.7946 45.936C67.3296 48.362 63.8549 48.7335 60.7955 47.4659C59.2614 46.8277 57.9283 45.5513 57.9589 43.7811C58.0289 39.8165 63.4834 38.1074 67.3908 39.7684C69.1565 40.5202 70.6862 42.0763 70.5201 44.1832C70.4808 44.6203 70.0131 45.4464 69.7946 45.936Z" fill="#F0F9FB"/>
<path d="M69.7946 45.9404C67.3252 48.3619 63.8549 48.7335 60.7954 47.4659C59.2613 46.8277 57.9283 45.5513 57.9589 43.781C58.0288 39.8164 63.4834 38.1117 67.3907 39.7684C69.1564 40.5202 70.6862 42.0763 70.5201 44.1832C70.4807 44.6159 70.0131 45.4464 69.7946 45.936V45.9404Z" fill="#F0F9FB"/>
<path d="M19.4187 47.3042C16.8838 48.6155 13.5621 48.4931 11.285 46.8845C10.1005 46.0497 9.42747 44.7427 9.49303 43.4707C9.56733 42.0807 10.2492 40.8437 11.5953 40.1487C14.2439 38.7805 17.5525 38.7674 20.0131 40.4328C21.3112 41.3114 21.8794 42.6227 21.7745 44.087C21.6827 45.3459 20.8567 46.5611 19.4231 47.3042H19.4187Z" fill="#F0F9FB"/>
<path d="M28.549 57.1216H51.4467" stroke="#4998A2" stroke-width="5" stroke-miterlimit="10" stroke-linecap="round"/>
<path d="M25.0262 39.4666C27.3338 39.4666 29.2045 36.4 29.2045 32.6171C29.2045 28.8342 27.3338 25.7676 25.0262 25.7676C22.7186 25.7676 20.8479 28.8342 20.8479 32.6171C20.8479 36.4 22.7186 39.4666 25.0262 39.4666Z" fill="#4998A2"/>
<path d="M54.9737 39.4666C57.2814 39.4666 59.1521 36.4 59.1521 32.6171C59.1521 28.8342 57.2814 25.7676 54.9737 25.7676C52.6661 25.7676 50.7954 28.8342 50.7954 32.6171C50.7954 36.4 52.6661 39.4666 54.9737 39.4666Z" fill="#4998A2"/>
</g>
<defs>
<clipPath id="clip0_870_1785">
<rect width="80" height="80" fill="white"/>
</clipPath>
</defs>
</svg>
