<svg width="306" height="306" viewBox="0 0 306 306" fill="none" xmlns="http://www.w3.org/2000/svg">
<circle cx="158.737" cy="154.912" r="95.8982" fill="#0A545A"/>
<circle cx="68.8496" cy="90.1601" r="6.01071" fill="#0A545A"/>
<circle cx="224.308" cy="66.3903" r="11.2018" fill="#0A545A"/>
<circle cx="70.7618" cy="216.658" r="10.6554" fill="#0A545A"/>
<circle cx="254.955" cy="216.155" r="10.6554" fill="#0A545A"/>
<circle cx="234.191" cy="228.176" r="5.19107" fill="#0A545A"/>
<path d="M174.051 63.1327C173.734 63.0653 173.734 62.6132 174.051 62.5458L178.841 61.5273C178.956 61.5027 179.046 61.4127 179.071 61.2974L180.103 56.5413C180.171 56.2261 180.621 56.2261 180.689 56.5413L181.72 61.2974C181.745 61.4127 181.836 61.5027 181.951 61.5273L186.741 62.5458C187.058 62.6132 187.058 63.0653 186.741 63.1327L181.951 64.1513C181.836 64.1758 181.745 64.2658 181.72 64.3811L180.689 69.1372C180.621 69.4524 180.171 69.4524 180.103 69.1372L179.071 64.3811C179.046 64.2658 178.956 64.1758 178.841 64.1513L174.051 63.1327Z" fill="#11939A"/>
<path d="M54.2361 162.026C54.3584 161.448 55.183 161.448 55.3053 162.026L57.1319 170.655C57.1764 170.865 57.3401 171.03 57.5501 171.076L66.0905 172.936C66.664 173.061 66.664 173.879 66.0905 174.004L57.5501 175.865C57.3401 175.91 57.1764 176.075 57.1319 176.285L55.3053 184.915C55.183 185.493 54.3584 185.493 54.2361 184.915L52.4095 176.285C52.365 176.075 52.2013 175.91 51.9912 175.865L43.4508 174.004C42.8773 173.879 42.8773 173.061 43.4508 172.936L51.9912 171.076C52.2013 171.03 52.365 170.865 52.4095 170.655L54.2361 162.026Z" fill="#11939A"/>
<path d="M244.442 92.6857C244.564 92.108 245.389 92.108 245.511 92.6857L246.577 97.72C246.621 97.9303 246.785 98.095 246.995 98.1407L251.992 99.2292C252.565 99.3542 252.565 100.172 251.992 100.297L246.995 101.386C246.785 101.431 246.621 101.596 246.577 101.806L245.511 106.841C245.389 107.418 244.564 107.418 244.442 106.841L243.376 101.806C243.332 101.596 243.168 101.431 242.958 101.386L237.962 100.297C237.388 100.172 237.388 99.3542 237.962 99.2292L242.958 98.1407C243.168 98.095 243.332 97.9303 243.376 97.72L244.442 92.6857Z" fill="#11939A"/>
<path d="M266.47 173.398L268.143 181.304L275.935 183.001L268.143 184.699L266.47 192.604L264.796 184.699L257.004 183.001L264.796 181.304L266.47 173.398Z" fill="#11939A"/>
<path fill-rule="evenodd" clip-rule="evenodd" d="M120 199.5C107.85 199.5 98 189.874 98 178C98 166.126 107.85 156.5 120 156.5C120.517 156.5 121.029 156.517 121.537 156.552C121.184 154.588 121 152.565 121 150.5C121 131.722 136.222 116.5 155 116.5C169.991 116.5 182.716 126.202 187.239 139.669C188.31 139.557 189.398 139.5 190.5 139.5C207.345 139.5 221 152.931 221 169.5C221 185.241 208.675 198.227 193 199.478V199.5H136.508H120ZM131.996 199.5H125.031Z" fill="#0F474A"/>
<path d="M131.996 199.5H125.031M120 199.5C107.85 199.5 98 189.874 98 178C98 166.126 107.85 156.5 120 156.5C120.517 156.5 121.029 156.517 121.537 156.552C121.184 154.588 121 152.565 121 150.5C121 131.722 136.222 116.5 155 116.5C169.991 116.5 182.716 126.202 187.239 139.669C188.31 139.557 189.398 139.5 190.5 139.5C207.345 139.5 221 152.931 221 169.5C221 185.241 208.675 198.227 193 199.478V199.5H136.508H120Z" stroke="#11939A" stroke-width="2.5" stroke-linecap="round"/>
<path fill-rule="evenodd" clip-rule="evenodd" d="M144.612 123.843C144.612 156.066 173.633 182.618 211 186.203C206.317 191.961 199.086 195.867 190.847 196.481V196.5H123.743C115.601 196.5 102 193.07 102 178.048C102 163.027 112.574 159.597 123.743 159.597C124.218 159.597 124.689 159.612 125.156 159.641C124.832 157.956 124.775 156.218 124.662 154.447C123.904 142.484 129.123 127.407 144.63 122.5C144.618 122.947 144.612 123.394 144.612 123.843ZM155.116 174.258C152.078 174.258 149.614 176.692 149.614 179.695C149.614 182.698 152.078 185.132 155.116 185.132C158.155 185.132 160.618 182.698 160.618 179.695C160.618 176.692 158.155 174.258 155.116 174.258Z" fill="url(#paint0_linear_1983_2927)"/>
<path d="M155.5 185.5C158.538 185.5 161 183.038 161 180C161 176.962 158.538 174.5 155.5 174.5C152.462 174.5 150 176.962 150 180C150 183.038 152.462 185.5 155.5 185.5Z" stroke="#11939A" stroke-width="2.5"/>
<path d="M140 168.5L147 163.007L140 157.777" stroke="#11939A" stroke-width="2.5" stroke-linecap="round" stroke-linejoin="round"/>
<path d="M171 168.5L164 163.007L171 157.777" stroke="#11939A" stroke-width="2.5" stroke-linecap="round" stroke-linejoin="round"/>
<path d="M165 126.5C171.509 128.223 176.648 133.313 178.44 139.793" stroke="#0B5F65" stroke-width="2.5" stroke-linecap="round"/>
<path d="M186 109.5C187.657 109.5 189 108.157 189 106.5C189 104.843 187.657 103.5 186 103.5C184.343 103.5 183 104.843 183 106.5C183 108.157 184.343 109.5 186 109.5Z" stroke="#0B5F65" stroke-width="2"/>
<path d="M217 125.5C218.657 125.5 220 124.157 220 122.5C220 120.843 218.657 119.5 217 119.5C215.343 119.5 214 120.843 214 122.5C214 124.157 215.343 125.5 217 125.5Z" fill="#0B5F65"/>
<path d="M193.758 117.258L202.116 125.616M202.243 117.258L193.885 125.616L202.243 117.258Z" stroke="#0B5F65" stroke-width="2.5" stroke-linecap="round" stroke-linejoin="round"/>
<path d="M99.4043 135.096L105.404 141.096M105.404 135.096L99.4043 141.096L105.404 135.096Z" stroke="#0B5F65" stroke-width="2.5" stroke-linecap="round" stroke-linejoin="round"/>
<path d="M113 128.5C114.657 128.5 116 127.157 116 125.5C116 123.843 114.657 122.5 113 122.5C111.343 122.5 110 123.843 110 125.5C110 127.157 111.343 128.5 113 128.5Z" fill="#0B5F65"/>
<defs>
<linearGradient id="paint0_linear_1983_2927" x1="156.5" y1="122.5" x2="156.5" y2="196.5" gradientUnits="userSpaceOnUse">
<stop offset="0.120192" stop-color="#0F474A"/>
<stop offset="1" stop-color="#108188"/>
</linearGradient>
</defs>
</svg>
