<svg width="24" height="24" viewBox="0 0 24 24" fill="none" xmlns="http://www.w3.org/2000/svg">
<path d="M12 14C10.8954 14 10 13.1045 10 12C10 10.8954 10.8954 9.99997 12 9.99997C13.1046 9.99997 14 10.8954 14 12C14 13.1045 13.1046 14 12 14Z" fill="#D6D6D5"/>
<path fill-rule="evenodd" clip-rule="evenodd" d="M7.62708 6.21763C10.1836 4.17241 13.8163 4.17241 16.3728 6.21763L21.1605 10.0478C22.4115 11.0486 22.4115 12.9513 21.1605 13.9521L16.3728 17.7823C13.8163 19.8275 10.1836 19.8275 7.62709 17.7823L2.83939 13.9521C1.58837 12.9513 1.58837 11.0486 2.83939 10.0478L7.62708 6.21763ZM8 12C8 14.2091 9.79086 16 12 16C14.2091 16 16 14.2091 16 12C16 9.79083 14.2091 7.99997 12 7.99997C9.79086 7.99997 8 9.79083 8 12Z" fill="#D6D6D5"/>
</svg>
