<svg width="33" height="30" viewBox="0 0 33 30" fill="none" xmlns="http://www.w3.org/2000/svg">
<path d="M1.64105 3.28205V9.84615H4.9231V3.28205H11.4872V0H4.9231C3.11798 0 1.64105 1.47692 1.64105 3.28205ZM4.9231 19.6923H1.64105V26.2564C1.64105 28.0615 3.11798 29.5385 4.9231 29.5385H11.4872V26.2564H4.9231V19.6923ZM27.8975 26.2564H21.3334V29.5385H27.8975C29.7026 29.5385 31.1795 28.0615 31.1795 26.2564V19.6923H27.8975V26.2564ZM21.3334 0V3.28205H27.8975V9.84615H31.1795V3.28205C31.1795 1.47692 29.7026 0 27.8975 0H21.3334Z" fill="white"/>
<path d="M8.20513 19.6927H24.6154V22.9747H8.20513V19.6927ZM24.6154 6.56445H8.20513V13.1286H0V16.4106H32.8205V13.1286H24.6154V6.56445Z" fill="white"/>
</svg>
