<svg width="150" height="228" viewBox="0 0 150 228" fill="none" xmlns="http://www.w3.org/2000/svg">
<g clip-path="url(#clip0_277_2753)">
<path d="M117.093 191.761C112.367 196.613 106.414 200.451 100.279 203.135C84.0648 210.232 66.432 210.14 50.8495 218.863C47.164 220.927 43.6574 222.744 39.872 226.619C37.4365 229.113 33.9429 228.18 33.0793 224.197C29.6634 208.454 20.6597 194.989 12.5999 181.479C2.08408 163.854 -6.79522 139.959 7.25966 121.582C20.3484 104.464 46.1615 103.12 61.5353 117.944C67.7483 123.936 71.3496 132.42 71.7931 141.115C74.3167 138.693 77.1632 136.656 80.3559 135.271C102.8 125.539 128.998 148.714 126.908 171.681C126.193 179.53 122.423 186.289 117.093 191.76V191.761Z" fill="#0A545A"/>
<path d="M79.0281 38.3316C79.0774 42.1018 78.2449 45.9563 76.8871 49.4281C73.2975 58.6052 66.3206 65.5101 63.6207 75.0788C62.9826 77.3419 62.3174 79.4378 62.3524 82.4531C62.3757 84.3933 60.6328 85.4023 58.7252 84.1742C51.1842 79.321 42.3399 77.5663 33.8497 75.4212C22.7723 72.6224 9.87289 66.7123 8.17147 53.9453C6.58547 42.0538 16.2182 31.3632 28.1048 31.1466C32.9095 31.0597 37.6662 32.9818 41.2636 36.2293C41.3038 34.2826 41.6228 32.3593 42.3348 30.5578C47.3392 17.8907 66.7732 16.7002 74.9912 26.5646C77.7988 29.9353 78.9763 34.0803 79.0307 38.3329L79.0281 38.3316Z" fill="#108188"/>
<path d="M139.12 100.105C137.258 102.015 134.913 103.527 132.498 104.586C126.111 107.381 119.165 107.344 113.028 110.781C111.577 111.594 110.196 112.309 108.705 113.837C107.745 114.82 106.369 114.451 106.03 112.882C104.685 106.681 101.138 101.377 97.9633 96.0557C93.8213 89.1133 90.3238 79.7015 95.8599 72.4633C101.015 65.7206 111.183 65.1914 117.238 71.0302C119.685 73.3906 121.104 76.7328 121.279 80.1567C122.272 79.2034 123.394 78.4006 124.652 77.8546C133.492 74.0209 143.811 83.15 142.987 92.1961C142.706 95.2879 141.221 97.9505 139.122 100.105H139.12Z" fill="#0B5F65"/>
</g>
<defs>
<clipPath id="clip0_277_2753">
<rect width="150" height="228" fill="white"/>
</clipPath>
</defs>
</svg>
