<svg width="306" height="306" viewBox="0 0 306 306" fill="none" xmlns="http://www.w3.org/2000/svg">
<circle cx="151.635" cy="168.57" r="95.8982" fill="#E8FAFA"/>
<circle cx="61.747" cy="103.818" r="6.01071" fill="#E8FAFA"/>
<circle cx="217.206" cy="80.0485" r="11.2018" fill="#E8FAFA"/>
<circle cx="63.6593" cy="230.316" r="10.6554" fill="#E8FAFA"/>
<circle cx="254.363" cy="219.934" r="10.6554" fill="#E8FAFA"/>
<circle cx="233.598" cy="231.956" r="5.19107" fill="#E8FAFA"/>
<path d="M167.64 87.7186C167.323 87.6513 167.323 87.1991 167.64 87.1318L172.429 86.1132C172.545 86.0886 172.635 85.9987 172.66 85.8833L173.692 81.1273C173.76 80.812 174.21 80.812 174.278 81.1273L175.309 85.8833C175.334 85.9987 175.425 86.0886 175.54 86.1132L180.33 87.1318C180.647 87.1991 180.647 87.6513 180.33 87.7186L175.54 88.7372C175.425 88.7617 175.334 88.8517 175.309 88.9671L174.278 93.7231C174.21 94.0384 173.76 94.0384 173.692 93.7231L172.66 88.9671C172.635 88.8517 172.545 88.7617 172.429 88.7372L167.64 87.7186Z" fill="#A3E9EC"/>
<path d="M50.9402 172.461C51.0625 171.883 51.8871 171.883 52.0094 172.461L53.836 181.091C53.8805 181.301 54.0442 181.466 54.2542 181.511L62.7946 183.372C63.3681 183.497 63.3681 184.315 62.7946 184.44L54.2542 186.3C54.0442 186.346 53.8805 186.511 53.836 186.721L52.0094 195.35C51.8871 195.928 51.0625 195.928 50.9402 195.35L49.1136 186.721C49.0691 186.511 48.9054 186.346 48.6953 186.3L40.1549 184.44C39.5814 184.315 39.5814 183.497 40.1549 183.372L48.6953 181.511C48.9054 181.466 49.0691 181.301 49.1136 181.091L50.9402 172.461Z" fill="#A3E9EC"/>
<path d="M92.0503 58.7751C92.1182 58.4542 92.5763 58.4542 92.6442 58.7751L93.659 63.569C93.6837 63.6859 93.7746 63.7773 93.8913 63.8028L98.6358 64.8363C98.9544 64.9057 98.9544 65.3601 98.6358 65.4295L93.8913 66.4631C93.7746 66.4885 93.6837 66.58 93.659 66.6969L92.6442 71.4908C92.5763 71.8117 92.1182 71.8117 92.0503 71.4908L91.0356 66.6969C91.0108 66.58 90.9199 66.4885 90.8032 66.4631L86.0588 65.4295C85.7402 65.3601 85.7402 64.9057 86.0588 64.8363L90.8032 63.8028C90.9199 63.7773 91.0108 63.6859 91.0356 63.569L92.0503 58.7751Z" fill="#A3E9EC"/>
<path d="M237.338 106.344C237.461 105.766 238.285 105.766 238.408 106.344L239.473 111.378C239.518 111.589 239.681 111.753 239.891 111.799L244.888 112.887C245.461 113.012 245.461 113.83 244.888 113.955L239.891 115.044C239.681 115.089 239.518 115.254 239.473 115.464L238.408 120.499C238.285 121.076 237.461 121.076 237.338 120.499L236.273 115.464C236.228 115.254 236.065 115.089 235.855 115.044L230.858 113.955C230.285 113.83 230.285 113.012 230.858 112.887L235.855 111.799C236.065 111.753 236.228 111.589 236.273 111.378L237.338 106.344Z" fill="#A3E9EC"/>
<path d="M259.367 187.056L261.04 194.961L268.833 196.659L261.04 198.356L259.367 206.262L257.694 198.356L249.901 196.659L257.694 194.961L259.367 187.056Z" fill="white"/>
<path d="M125.739 66.3561C132.687 64.4731 139.68 68.3084 141.437 74.7911C143.194 81.2739 139.095 88.116 132.147 89.9992C125.199 91.8823 118.206 88.0469 116.448 81.5642C114.691 75.0814 118.791 68.2392 125.739 66.3561Z" fill="#A3E9EC" stroke="#A3E9EC" stroke-width="2"/>
<path d="M124.74 78.2375L128.826 76.5847L136.446 74.5195C142.241 72.9487 148.323 72.7525 154.207 73.9464C156.393 74.39 158.537 75.0224 160.614 75.8365L168.331 78.8612L172.936 81.3446C176.427 83.2273 179.681 85.5204 182.628 88.1749C186.019 91.2288 188.974 94.7341 191.41 98.5924L195.816 105.57L204.473 124.197L210.446 137.36L219.891 152.978L227.207 165.178L232.8 173.203C234.51 175.657 237.068 177.391 239.982 178.069C242.178 178.581 244.187 179.696 245.783 181.288L248.545 184.045C248.922 184.42 249.262 184.831 249.561 185.27C251.332 187.87 251.511 191.238 250.028 194.012L249.84 194.363C248.855 196.204 247.266 197.651 245.341 198.461L232.303 203.947L212.538 210.902L177.718 221.2L157.866 226.581L130.001 233.273L105.135 238.414L91.3265 240.276C88.9443 240.597 86.5519 239.763 84.8863 238.03C83.377 236.459 82.6212 234.312 82.8137 232.142L83.0389 229.604C83.2698 227.002 84.5583 224.608 86.6034 222.982C88.6151 221.383 89.8962 219.039 90.1562 216.483L91.416 204.095L91.416 187.8L89.3506 165.388L88.2531 149.505L87.68 142.717C87.3373 138.657 87.3259 134.575 87.6457 130.513L87.7952 128.615C88.1561 124.032 89.0529 119.507 90.467 115.132C91.7341 111.213 93.4091 107.437 95.4647 103.868L96.0591 102.835C98.0484 99.3809 100.403 96.1504 103.083 93.1995C105.842 90.1621 108.928 87.4393 112.286 85.0809L112.706 84.7858C116.455 82.1525 120.492 79.9555 124.74 78.2375Z" fill="#D4F1F2"/>
<path d="M124.735 78.2199L128.821 76.5672L136.441 74.5019C142.236 72.9311 148.318 72.7349 154.202 73.9289C156.389 74.3724 158.532 75.0048 160.609 75.8189L168.326 78.8437L172.931 81.327C176.422 83.2098 179.676 85.5028 182.623 88.1573C186.014 91.2112 188.969 94.7165 191.405 98.5749L195.811 105.552L204.468 124.18L210.441 137.343L219.886 152.96L227.202 165.16L232.172 171.961C234.365 174.961 237.587 177.047 241.222 177.82L241.554 177.891C243.877 178.385 246.034 179.471 247.816 181.043L248.858 181.962C250.27 183.208 251.271 184.851 251.73 186.677C252.19 188.504 252.086 190.428 251.43 192.194L251.384 192.318C251.145 192.961 250.839 193.578 250.471 194.158L250.282 194.455C249.061 196.375 247.359 197.942 245.347 199.002L241.935 200.8L235.451 204.215L217.272 212.411L204.977 217.329L194.322 221.427L185.306 224.433L176.017 227.711L168.093 229.897L162.629 231.263L147.875 234.268L133.942 237L107.713 240.77L99.6952 241.657C98.1241 241.831 96.5382 241.825 94.9682 241.641L90.925 241.167C88.731 240.91 86.6945 239.899 85.1639 238.306C83.4583 236.531 82.5058 234.165 82.5058 231.704L82.5058 230.841C82.5058 230.213 82.5565 229.585 82.6575 228.965L82.715 228.612C83.1612 225.872 84.3086 223.295 86.0458 221.13L87.2111 219.677C90.7759 215.234 92.5786 209.634 92.2747 203.945L91.4111 187.782L89.3457 165.37L88.2482 149.488L87.6752 142.699C87.3324 138.639 87.321 134.558 87.6408 130.496L87.7904 128.597C88.1513 124.014 89.048 119.489 90.4621 115.115C91.7292 111.195 93.4043 107.42 95.4598 103.85L96.0542 102.818C98.0435 99.3634 100.398 96.1329 103.078 93.182C105.837 90.1445 108.923 87.4217 112.281 85.0633L112.701 84.7682C116.45 82.1349 120.488 79.9379 124.735 78.2199Z" fill="url(#paint0_linear_1828_5315)" stroke="#A3E9EC" stroke-width="2"/>
<ellipse cx="166.076" cy="211.835" rx="74.6222" ry="13.0487" transform="rotate(-15.4595 166.076 211.835)" fill="#A3E9EC"/>
<path d="M153.878 215.886L153.066 215.019C152.201 214.095 151.462 213.06 150.87 211.941C150.465 211.176 150.13 210.377 149.869 209.552L148.462 205.096L151.763 203.924L155.072 202.695L163.213 200.501L172.381 198.061L177.775 196.889L178.007 197.686C178.788 200.357 179.151 203.133 179.081 205.915L178.891 207.908C178.667 210.264 177.866 212.529 176.561 214.503L176.491 214.608C175.958 215.414 175.339 216.16 174.644 216.832C172.702 218.71 170.233 219.952 167.566 220.392L166.592 220.552C165.762 220.689 164.922 220.748 164.081 220.727C161.324 220.658 158.655 219.739 156.44 218.097L155.941 217.726C155.199 217.176 154.509 216.56 153.878 215.886Z" fill="#D4F1F2" stroke="#A3E9EC" stroke-width="2"/>
<defs>
<linearGradient id="paint0_linear_1828_5315" x1="130.552" y1="76.0979" x2="171.954" y2="228.85" gradientUnits="userSpaceOnUse">
<stop stop-color="#A3E9EC"/>
<stop offset="0.8" stop-color="white"/>
</linearGradient>
</defs>
</svg>
