<svg width="80" height="80" viewBox="0 0 80 80" fill="none" xmlns="http://www.w3.org/2000/svg">
<path d="M80 40C80 62.0916 62.0935 80 40 80C17.9065 80 0 62.0916 0 40C0 17.9084 17.9065 0 40 0C62.0935 0 80 17.9084 80 40ZM73.8636 39.9738C73.8636 21.2479 58.6844 6.0671 39.9607 6.0671C21.2369 6.0671 6.05332 21.2479 6.05332 39.9738C6.05332 58.6996 21.2325 73.8804 39.9563 73.8804C58.6801 73.8804 73.8593 58.6996 73.8593 39.9738H73.8636Z" fill="#FDFDFD"/>
<path d="M73.8637 39.9738C73.8637 58.6996 58.6845 73.8805 39.9607 73.8805C21.2369 73.8805 6.05334 58.6996 6.05334 39.9738C6.05334 21.248 21.2325 6.06714 39.9563 6.06714C58.6801 6.06714 73.8593 21.248 73.8593 39.9738H73.8637ZM30.3235 35.5852C30.5201 36.5775 31.6783 36.9184 32.4607 36.7042C33.1687 36.5119 34.0254 35.795 33.9205 34.8072C33.5883 31.7081 31.4423 28.9455 28.4572 27.9839C23.4659 26.3797 18.8855 29.999 18.2955 34.829C18.1818 35.7688 19.0123 36.5119 19.7509 36.7086C20.4371 36.8922 21.5735 36.442 21.8182 35.5503C22.2553 33.9592 22.9983 32.3244 24.7203 31.6818C26.0271 31.1923 27.4738 31.472 28.5927 32.355C29.5105 33.0762 30.035 34.1428 30.3191 35.5809L30.3235 35.5852ZM59.6023 36.7654C60.2579 36.8048 61.4773 36.0573 61.4511 35.0782C61.3724 32.1626 59.4756 29.4045 56.7701 28.2068C55.0437 27.4419 53.0595 27.4287 51.2894 28.0276C48.5533 28.9499 46.8401 31.3584 46.0927 34.0816C45.7693 35.2574 46.4336 36.6037 47.5918 36.7086C48.9205 36.831 49.764 35.8868 49.8995 34.6323C50.0219 33.509 51.0446 32.4337 51.9581 31.9004C53.1469 31.2054 54.5105 31.3278 55.7693 31.9965C58.5096 33.4478 57.0236 36.6037 59.6023 36.7611V36.7654ZM19.4187 47.3042C20.8523 46.5611 21.6783 45.3459 21.7701 44.087C21.875 42.6227 21.3068 41.3114 20.0088 40.4328C17.5481 38.7674 14.2352 38.7805 11.5909 40.1487C10.2448 40.8437 9.56296 42.0807 9.48866 43.4707C9.4231 44.7427 10.0962 46.0497 11.2806 46.8845C13.5577 48.4931 16.8794 48.6155 19.4144 47.3042H19.4187ZM69.7946 45.9404C70.0131 45.4508 70.4808 44.6203 70.5201 44.1876C70.6862 42.0807 69.1565 40.5202 67.3908 39.7727C63.4834 38.1117 58.0289 39.8208 57.9589 43.7854C57.9284 45.5557 59.257 46.8321 60.7955 47.4703C63.8549 48.7379 67.3296 48.3663 69.7946 45.9447V45.9404ZM53.6233 51.1595C54.493 50.0886 54.1958 48.6767 53.2299 48.1434C52.1373 47.5402 50.9047 48.0254 50.3715 49.0308C49.4887 50.6874 48.2387 51.6665 46.6652 52.6238C41.0271 56.0682 33.3217 54.8356 29.4493 49.3848C28.785 48.4494 28.2998 47.5096 26.9624 47.8986C26.132 48.1434 25.0918 49.2886 25.6818 50.412C29.8208 58.2582 39.7509 60.4481 47.4214 55.6967C48.1644 55.2377 48.7194 54.6782 49.4974 54.2542C50.8829 53.498 52.5962 52.4227 53.6189 51.1595H53.6233Z" fill="#F0F9FB"/>
<path d="M53.6232 51.1593C52.5874 52.4357 51.604 53.7733 50.3103 54.8048C49.0166 55.8364 47.4082 56.6844 45.8391 57.2964C42.5044 58.6033 38.8243 58.8525 35.3584 57.9171C31.2893 56.8199 27.6617 54.171 25.6818 50.4119C25.0874 49.2885 26.1276 48.1433 26.9624 47.8985C28.2998 47.5095 28.7849 48.4493 29.4493 49.3847C33.326 54.8354 41.0271 56.0681 46.6652 52.6237C48.2386 51.6664 49.4886 50.6873 50.3715 49.0306C50.9047 48.0253 52.1372 47.5401 53.2299 48.1433C54.1958 48.6765 54.493 50.0884 53.6232 51.1593Z" fill="#4998A2"/>
<path d="M69.7946 45.9404C67.3252 48.3619 63.8549 48.7335 60.7954 47.4659C59.2613 46.8277 57.9283 45.5513 57.9589 43.781C58.0288 39.8164 63.4834 38.1117 67.3907 39.7684C69.1564 40.5202 70.6862 42.0763 70.5201 44.1832C70.4807 44.6159 70.0131 45.4464 69.7946 45.936V45.9404Z" fill="#AEE2E6"/>
<path d="M19.4187 47.3042C16.8838 48.6155 13.5621 48.4931 11.285 46.8845C10.1005 46.0497 9.42747 44.7427 9.49303 43.4707C9.56733 42.0807 10.2492 40.8437 11.5953 40.1487C14.2439 38.7805 17.5525 38.7674 20.0131 40.4328C21.3112 41.3114 21.8794 42.6227 21.7745 44.087C21.6827 45.3459 20.8567 46.5611 19.4231 47.3042H19.4187Z" fill="#AEE2E6"/>
<path d="M30.3234 35.5853C30.0393 34.1472 29.5148 33.0806 28.597 32.3594C27.4781 31.4764 26.0314 31.1967 24.7246 31.6862C23.0026 32.3288 22.2596 33.9636 21.8225 35.5547C21.5778 36.4464 20.4414 36.8922 19.7552 36.713C19.0166 36.5163 18.1818 35.7732 18.2998 34.8334C18.8855 30.0034 23.4703 26.3841 28.4615 27.9883C31.451 28.9499 33.597 31.7081 33.9248 34.8116C34.0297 35.7994 33.1731 36.5207 32.465 36.7086C31.6827 36.9184 30.5245 36.5819 30.3278 35.5896L30.3234 35.5853Z" fill="#4998A2"/>
<path d="M59.6022 36.7655C57.0235 36.6081 58.5052 33.4522 55.7692 32.001C54.5061 31.3322 53.1424 31.2098 51.958 31.9048C51.0445 32.4381 50.0218 33.5134 49.8994 34.6368C49.7639 35.8913 48.9204 36.8354 47.5917 36.713C46.4335 36.6081 45.7692 35.2618 46.0926 34.086C46.84 31.3628 48.5576 28.9543 51.2893 28.032C53.0594 27.4332 55.0437 27.4463 56.77 28.2112C59.4755 29.4089 61.3723 32.1627 61.451 35.0826C61.4772 36.0618 60.2578 36.8092 59.6022 36.7699V36.7655Z" fill="#4998A2"/>
</svg>
